<?xml version="1.0" encoding="utf-8"?>
<!-- Generator: Adobe Illustrator 24.0.1, SVG Export Plug-In . SVG Version: 6.00 Build 0)  -->
<!DOCTYPE svg PUBLIC "-//W3C//DTD SVG 1.1//EN" "http://www.w3.org/Graphics/SVG/1.1/DTD/svg11.dtd" [
	<!ENTITY ns_extend "http://ns.adobe.com/Extensibility/1.0/">
	<!ENTITY ns_ai "http://ns.adobe.com/AdobeIllustrator/10.0/">
	<!ENTITY ns_graphs "http://ns.adobe.com/Graphs/1.0/">
	<!ENTITY ns_vars "http://ns.adobe.com/Variables/1.0/">
	<!ENTITY ns_imrep "http://ns.adobe.com/ImageReplacement/1.0/">
	<!ENTITY ns_sfw "http://ns.adobe.com/SaveForWeb/1.0/">
	<!ENTITY ns_custom "http://ns.adobe.com/GenericCustomNamespace/1.0/">
	<!ENTITY ns_adobe_xpath "http://ns.adobe.com/XPath/1.0/">
]>
<svg version="1.1" id="Calque_1" xmlns:x="&ns_extend;" xmlns:i="&ns_ai;" xmlns:graph="&ns_graphs;"
	 xmlns="http://www.w3.org/2000/svg" xmlns:xlink="http://www.w3.org/1999/xlink" x="0px" y="0px" viewBox="0 0 180.682 120.71"
	 enable-background="new 0 0 180.682 120.71" xml:space="preserve">
<metadata>
	<sfw  xmlns="&ns_sfw;">
		<slices></slices>
		<sliceSourceBounds  bottomLeftOrigin="true" height="120.71" width="180.682" x="491.903" y="-523.133"></sliceSourceBounds>
	</sfw>
</metadata>
<g>
	<path fill="#587C9A" d="M1.609,65.303c0,0-11.209,17.511,25.536,17.812c0,0,0.54-15.236-11.471-21.514
		c-4.834-2.538-10.802-1.059-13.893,3.442L1.609,65.303z"/>
	<path fill="none" stroke="#555562" stroke-width="0.2261" stroke-miterlimit="10" d="M1.693,65.009c0,0,18.82,3.708,25.453,18.106"
		/>
	<path fill="none" stroke="#555562" stroke-width="0.4522" stroke-miterlimit="10" d="M28.787,80.758
		c0,0-12.084-15.616-10.981-31.011c0.452-6.46-1.065-12.914-4.57-18.364c-1.668-2.58-3.568-5.002-5.678-7.236"/>
	<path fill="#587C9A" d="M8.192,14.445c0.843,2.162-0.624,9.961-0.624,9.961s-6.361-4.746-7.204-6.908
		c-0.916-2.133,0.072-4.605,2.205-5.521s4.605,0.072,5.521,2.205C8.126,14.268,8.161,14.356,8.192,14.445z"/>
	<path fill="#587C9A" d="M19.34,23.892c-0.466,2.275-5.938,8.023-5.938,8.023s-2.763-7.44-2.297-9.723
		c0.41-2.285,2.594-3.806,4.879-3.396c2.285,0.41,3.806,2.594,3.396,4.879c-0.012,0.069-0.026,0.138-0.042,0.206L19.34,23.892z"/>
	<path fill="#587C9A" d="M27.046,44.47c-1.551,1.728-9.174,3.928-9.174,3.928s1.37-7.817,2.919-9.545
		c1.574-1.706,4.234-1.813,5.94-0.239C28.405,40.159,28.545,42.755,27.046,44.47z"/>
	<path fill="#587C9A" d="M29.371,61.354c-1.237,1.965-8.38,5.427-8.38,5.427s0.029-7.935,1.266-9.9
		c1.196-1.99,3.779-2.633,5.769-1.437c1.99,1.196,2.633,3.779,1.437,5.769c-0.03,0.049-0.06,0.098-0.092,0.146V61.354z"/>
	<path fill="#587C9A" d="M5.338,35.542c2.139,0.904,9.974-0.357,9.974-0.357s-4.563-6.494-6.702-7.399
		c-2.142-0.904-4.611,0.1-5.514,2.242C2.193,32.17,3.196,34.639,5.338,35.542z"/>
	<path fill="#587C9A" d="M8.314,55.254c2.311,0.226,9.409-3.326,9.409-3.326s-6.302-4.821-8.613-5.043
		c-2.305-0.281-4.4,1.36-4.681,3.664c-0.281,2.305,1.36,4.4,3.664,4.681c0.073,0.009,0.147,0.016,0.221,0.021L8.314,55.254z"/>
	<path fill="#587C9A" d="M13.829,74.013c2.241,0.608,9.836-1.689,9.836-1.689s-5.398-5.818-7.639-6.424
		c-2.229-0.65-4.562,0.631-5.212,2.86c-0.65,2.229,0.631,4.562,2.86,5.212C13.726,73.986,13.778,74,13.829,74.013L13.829,74.013z"/>
	<path opacity="0.25" fill="#010101" enable-background="new    " d="M8.192,14.445c0.843,2.162-0.624,9.961-0.624,9.961
		s-6.361-4.746-7.204-6.908c-0.916-2.133,0.072-4.605,2.205-5.521s4.605,0.072,5.521,2.205C8.126,14.268,8.161,14.356,8.192,14.445z
		"/>
	<path opacity="0.25" fill="#010101" enable-background="new    " d="M19.34,23.892c-0.466,2.275-5.938,8.023-5.938,8.023
		s-2.763-7.44-2.297-9.723c0.41-2.285,2.594-3.806,4.879-3.396c2.285,0.41,3.806,2.594,3.396,4.879
		c-0.012,0.069-0.026,0.138-0.042,0.206L19.34,23.892z"/>
	<path opacity="0.25" fill="#010101" enable-background="new    " d="M27.046,44.47c-1.551,1.728-9.174,3.928-9.174,3.928
		s1.37-7.817,2.919-9.545c1.574-1.706,4.234-1.813,5.94-0.239C28.405,40.159,28.545,42.755,27.046,44.47z"/>
	<path opacity="0.25" fill="#010101" enable-background="new    " d="M29.371,61.354c-1.237,1.965-8.38,5.427-8.38,5.427
		s0.029-7.935,1.266-9.9c1.196-1.99,3.779-2.633,5.769-1.437c1.99,1.196,2.633,3.779,1.437,5.769
		c-0.03,0.049-0.06,0.098-0.092,0.146V61.354z"/>
	<path opacity="0.25" fill="#010101" enable-background="new    " d="M5.338,35.542c2.139,0.904,9.974-0.357,9.974-0.357
		s-4.563-6.494-6.702-7.399c-2.142-0.904-4.611,0.1-5.514,2.242C2.193,32.17,3.196,34.639,5.338,35.542z"/>
	<path opacity="0.25" fill="#010101" enable-background="new    " d="M8.314,55.254c2.311,0.226,9.409-3.326,9.409-3.326
		s-6.302-4.821-8.613-5.043c-2.305-0.281-4.4,1.36-4.681,3.664c-0.281,2.305,1.36,4.4,3.664,4.681
		c0.073,0.009,0.147,0.016,0.221,0.021L8.314,55.254z"/>
	<path opacity="0.25" fill="#010101" enable-background="new    " d="M13.829,74.013c2.241,0.608,9.836-1.689,9.836-1.689
		s-5.398-5.818-7.639-6.424c-2.229-0.65-4.562,0.631-5.212,2.86c-0.65,2.229,0.631,4.562,2.86,5.212
		C13.726,73.986,13.778,74,13.829,74.013L13.829,74.013z"/>
	<polygon fill="#99806B" points="27.166,4.55 27.166,65.031 107.639,49.399 106.102,3.012 	"/>
	<polygon fill="#BC845B" points="178.437,75.86 178.437,95.85 93.351,120.71 92.482,120.26 25.181,85.342 25.181,2.691 108.472,0 
		108.985,45.874 105.652,46.901 104.37,3.993 31.073,6.535 30.562,68.683 94.375,96.619 94.425,96.607 	"/>
	<polygon fill="#99806B" points="178.437,75.86 178.437,95.85 93.351,120.71 92.482,120.26 94.425,96.607 	"/>
	<path fill="#EBECF0" d="M75.86,46.835c0,0-41.195,4.111-45.196,10.065S30.63,70.158,30.63,70.158l63.686,27.678l86.366-22.296
		c0,0-2.306-15.634-9.481-17.427c-7.175-1.793-64.333-14.094-64.333-14.094S83.804,42.606,75.86,46.835z"/>
	<path fill="#F9FAFB" d="M30.626,56.956l64.968,22.425c0,0,69.296-21.012,79.112-19.033c0,0-48.474-17.351-67.837-16.595
		c-15.431,0.601-31.587,3.134-31.587,3.134S32.421,51.192,30.626,56.956z"/>
	<path fill="#EBECF0" d="M100.046,40.783c-0.021-1.456-0.156-2.293-0.435-2.854l0.009,0c0,0-1.158-2.882-4.492-4.632
		c-3.333-1.75-3.167-3.667-4.25-4.807c-1.083-1.141-2.917-1.526-17.5-0.609c-5.597,0.352-10.099,1.581-13.534,2.96
		c-2.544,0.578-2.886,1.332-5.927,2.278c-3.467,1.079-2.336,2.539-2.336,2.539l0.377,4.372c0,0,0.603,1.96,1.206,3.955
		s0.754,2.452,0.754,2.452s2.186,3.317,3.392,4.221c1.206,0.904,1.507,1.206,6.03,2.831c4.522,1.625,4.749,0.033,16.055,0
		c11.306-0.033,6.784-0.721,16.658-4.867C105.925,44.476,100.121,46.059,100.046,40.783z"/>
</g>
<g>
</g>
<g>
</g>
<g>
</g>
<g>
</g>
<g>
</g>
<g>
</g>
</svg>
