<?xml version="1.0" encoding="utf-8"?>
<!-- Generator: Adobe Illustrator 24.0.1, SVG Export Plug-In . SVG Version: 6.00 Build 0)  -->
<!DOCTYPE svg PUBLIC "-//W3C//DTD SVG 1.1//EN" "http://www.w3.org/Graphics/SVG/1.1/DTD/svg11.dtd" [
	<!ENTITY ns_extend "http://ns.adobe.com/Extensibility/1.0/">
	<!ENTITY ns_ai "http://ns.adobe.com/AdobeIllustrator/10.0/">
	<!ENTITY ns_graphs "http://ns.adobe.com/Graphs/1.0/">
	<!ENTITY ns_vars "http://ns.adobe.com/Variables/1.0/">
	<!ENTITY ns_imrep "http://ns.adobe.com/ImageReplacement/1.0/">
	<!ENTITY ns_sfw "http://ns.adobe.com/SaveForWeb/1.0/">
	<!ENTITY ns_custom "http://ns.adobe.com/GenericCustomNamespace/1.0/">
	<!ENTITY ns_adobe_xpath "http://ns.adobe.com/XPath/1.0/">
]>
<svg version="1.1" id="Calque_1" xmlns:x="&ns_extend;" xmlns:i="&ns_ai;" xmlns:graph="&ns_graphs;"
	 xmlns="http://www.w3.org/2000/svg" xmlns:xlink="http://www.w3.org/1999/xlink" x="0px" y="0px" viewBox="0 0 597.813 1068.583"
	 enable-background="new 0 0 597.813 1068.583" xml:space="preserve">
<metadata>
	<sfw  xmlns="&ns_sfw;">
		<slices></slices>
		<sliceSourceBounds  bottomLeftOrigin="true" height="1068.583" width="597.813" x="308.094" y="-1014.292"></sliceSourceBounds>
	</sfw>
</metadata>
<g>
	<g>
		<g>
			<g>
				<g>
					<path fill="#FFFFFF" d="M597.813,0H72.519L99.03,71.8c0,0,4.025,70.485-7.761,82.271c-9.623,9.623-23.112,28.448-32.039,40.906
						c-2.531,3.533-4.718,6.584-6.234,8.605c-2.12,2.827-3.503,5.475-4.724,7.811c-2.739,5.243-4.902,9.384-13.829,13.104
						c-4.738,1.974-6.807,3.545-7.145,5.423c-0.361,2.016,1.273,3.539,3.343,5.467c1.773,1.652,3.979,3.707,5.402,6.552
						c3.302,6.604,1.377,9.666,0.625,10.516H10.145L8.933,286.4l1.306,0.003c1.847,0.003,5.91,0.557,6.675,2.248
						c0.449,0.991-0.267,2.637-2.014,4.634c-7.637,8.729-14.273,13.204-14.339,13.248L0,306.909v12.238l7.587,12.985H0v22.529
						l53.795,9.156l0.211,0.019c0.976,0,9.602-0.125,11.976-4.408c1.016-1.833,0.745-4.02-0.806-6.501
						c-5.648-9.038-13.388-15.721-13.715-16.001l-0.636-0.545l-0.486,0.243c-0.202-0.29-0.68-1.297-0.68-4.35v-15.711l-3.299-18.799
						c4.124,10.478,9.636,24.264,11.039,26.721c0.296,0.518,0.572,1.047,0.85,1.578c1.863,3.563,3.973,7.602,12.285,9.68
						l8.978,2.244c4.089,1.023,5.811-0.477,7.193-1.682c1.743-1.524,3.547-3.097,13.815,2.679c3.104,1.746,5.865,3.187,8.3,4.458
						c11.602,6.055,14.721,7.683,11.312,18.76c-1.16,3.771-2.019,4.078-2.008,4.083c-0.256-0.05-0.78-0.725-0.979-0.979
						c-0.39-0.5-1.045-1.339-2.045-0.921c-1.197,0.504-1.197,0.504,0.5,12.948c0.479,3.505,0.875,6.444,1.212,8.946
						c1.941,14.39,1.941,14.39,4.243,24.238l0.402,1.721c3.161,13.547,4.343,18.616,15.194,22.233
						c3.687,1.229,6.395,0.807,8.372,0.5c1.271-0.198,2.004-0.296,2.367-0.003c1.15,0.928,1.602,6.218,1.867,10.724
						c0.367,6.247,0.739,9.901,0.985,12.32c0.504,4.953,0.514,5.048-0.967,13.192c-0.814,4.478-5.314,5.681-8.601,6.561
						c-2.183,0.583-3.759,1.005-3.889,2.51c-0.158,1.817,1.628,3.158,14.496,9.132c30.204,14.025,36.307,15.862,41.632,16.926
						c2.62,0.525,4.594-0.389,6.334-1.194c2.459-1.137,4.234-1.958,7.694,0.926c1.435,1.195,2.932,2.205,4.156,1.519
						c0.025-0.013,0.049-0.027,0.072-0.042c0.564,0.957,1.304,2.225,2.223,3.8c3.096,5.308,3.26,10.7,3.38,14.637
						c0.103,3.411,0.178,5.875,2.052,6.957c1.673,0.964,4.084,0.392,8.602-2.041c7.706-4.149,8.205-9.289,8.364-11.912
						c1.008,0.74,2.706,2.154,4.818,3.915c5.439,4.532,7.866,7.726,9.816,10.293c2.86,3.763,4.749,6.25,13.036,9.012
						c10.803,3.602,23.521,4.355,28.534,4.513c0.147,0.548,0.459,0.794,0.915,0.956c1.325,0.472,2.122-1.096,2.38-1.612l0.914-1.828
						h-1.612c0.136-0.876,0.378-2.17,0.801-4.074c2.302-10.362,0.037-16.211-0.06-16.454l-0.087-0.216l-0.157-0.17
						c-2.052-2.229-4.545-6.017-3.888-7.333c0.115-0.231,0.734-0.962,3.833-0.655c10.727,1.061,17.248,7.429,17.311,7.491
						l1.318,1.319l0.734-1.714c2.475-5.774,1.563-10.427,0.715-12.834c13.644-0.964,17.86-0.701,19.93-0.572
						c2.451,0.152,2.573,0.121,8.827-1.585c3.484-0.951,5.508-1,6.02-0.148c0.166,0.276,0.51,0.85,1.265,0.943
						c1.013,0.126,1.357-0.225,5.621-4.488c6.966-6.967,13.976-8.296,16.278-8.549c-0.047,1.173-0.174,3.138-0.473,6.42
						c-0.532,5.86-2.089,6.017-4.243,6.235c-1.937,0.195-4.588,0.464-5.813,4.753c-1.792,6.275-9.329,9.528-11.139,10.228
						c-2.187-0.749-7.523-2.268-9.438,0.005c-1.52,1.804-0.003,4.458,0.495,5.331c4.742,8.295,16.695,4.5,18.219,3.977
						c2.424-0.283,6.196-0.26,7.26,0.679c0.153,0.136,0.167,0.229,0.167,0.328c0,3.156,3.608,10.813,4.795,13.245
						c-0.832,1.167-3.021,3.843-6.083,4.608c-3.743,0.938-10.198,0.191-11.591,0.01c-1.588-0.96-4.941-1.853-8,0.752
						c-1.947,1.658-2.336,3.956-2.748,6.39c-0.411,2.427-0.875,5.178-3.031,7.872c-1.927,2.408-5.413,3.999-8.489,5.402
						c-3.857,1.761-7.5,3.422-7.5,6.608c0,3.156,4.414,10.196,10.184,19.072c2.062,3.171,3.842,5.909,4.539,7.302
						c0.953,1.908,2.553,3.54,4.245,5.268c2.515,2.566,5.114,5.219,5.738,8.965c0.226,1.354,0.406,2.347,0.551,3.142
						c0.555,3.048,0.555,3.048,0.555,10.116c0,3.576-0.745,6.798-1.402,9.64c-0.975,4.219-1.816,7.863,0.649,10.33l0.194,0.194
						c3.392,3.395,12.402,12.411,23.154,16.912c3.84,1.606,5.581,1.21,6.693,0.313c0.693,0.881,2.022,2.841,3.944,5.673
						c1.076,1.586,2.395,3.53,4.021,5.906c14.654,21.416,21.544,28.307,27.083,33.846c1.662,1.663,3.103,2.822,4.494,3.942
						c3.344,2.691,5.984,4.817,9.857,12.563c2.503,5.005,4.801,8.277,6.83,11.164c2.541,3.617,4.736,6.741,6.568,12.237
						c1.287,3.861,2.067,6.859,2.823,9.758c1.172,4.5,2.278,8.751,5.076,15.044c2.34,5.264,3.908,6.313,4.779,6.839
						c-0.034,0.454-0.191,1.399-0.382,2.542c-0.46,2.762,0.36,6.504,1.23,10.467c1.31,5.968,2.794,12.732-0.442,15.75
						c-1.136,1.06-2.169,1.95-3.168,2.812c-4.17,3.597-7.464,6.438-12.113,16.667c-0.909,1.999-1.758,3.792-2.544,5.449
						c-4.083,8.612-6.548,13.811-6.548,25.373c0,4.744,0.543,9.299,1.066,13.704c0.944,7.926,1.835,15.412-0.957,21.694
						c-1.484,3.34-2.353,5.077-3.05,6.473c-1.416,2.832-2.196,4.391-5.963,14.937c-3.698,10.357-5.68,20.579-7.271,28.792
						c-0.821,4.236-1.529,7.895-2.293,10.564c-1.813,6.352-1.325,20.778-1.033,29.398c0.08,2.384,0.145,4.268,0.145,5.457
						c0,1.906-1.289,4.935-2.652,8.141c-2.309,5.425-5.173,12.16-3.816,18.036c-0.199,2.152-1.155,17.583,10.496,32.013
						c4.549,5.633,10.394,10.312,17.459,14.052h163.632V0z"/>
				</g>
			</g>
		</g>
	</g>
	<g>
		<polygon fill="#5A707B" points="215.448,890.54 208.743,890.54 208.743,882.673 205.235,882.673 205.235,902.286 208.743,902.286 
			208.743,893.597 215.448,893.597 215.448,902.286 218.956,902.286 218.956,882.673 215.448,882.673 		"/>
		<path fill="#5A707B" d="M230.097,887.192c-3.885,0-7.398,2.823-7.398,7.746c0,4.885,3.514,7.708,7.398,7.708
			c3.883,0,7.396-2.823,7.396-7.708C237.493,890.016,233.979,887.192,230.097,887.192z M230.097,899.816
			c-2.406,0-3.848-1.934-3.848-4.878c0-2.964,1.441-4.916,3.848-4.916c2.404,0,3.846,1.952,3.846,4.916
			C233.942,897.883,232.501,899.816,230.097,899.816z"/>
		<path fill="#5A707B" d="M251.663,899.88c-2.488,0-3.402-1.097-3.402-3.531V890.3h6.699v-2.747h-6.699v-4.614h-2.875l-0.449,4.614
			l-4.088,0.161v2.586h3.941v6.063c0,3.754,1.535,6.283,6.037,6.283c1.906,0,3.393-0.401,4.713-0.837l-0.672-2.524
			C253.907,899.632,252.893,899.88,251.663,899.88z"/>
		<path fill="#5A707B" d="M266.53,887.192c-3.943,0-7.594,2.902-7.594,7.708c0,4.904,3.547,7.746,8.059,7.746
			c2.164,0,4.199-0.714,5.771-1.74l-1.186-2.148c-1.32,0.752-2.59,1.204-4.133,1.204c-2.735,0-4.662-1.313-5.046-4.033h10.812
			c0.061-0.379,0.152-1.051,0.152-1.742C273.366,890.109,270.929,887.192,266.53,887.192z M266.636,889.858
			c2.089,0,3.398,1.227,3.626,3.622h-7.793C262.939,891.119,264.581,889.858,266.636,889.858z"/>
		<path fill="#5A707B" d="M287.977,899.816c-1.488,0-2.648-0.746-2.648-2.714v-15.999h-8.389v2.747h4.918v13.072
			c0,3.615,1.83,5.724,5.27,5.724c1.723,0,2.727-0.301,4.176-0.837l-0.807-2.565C289.552,899.64,288.739,899.816,287.977,899.816z"
			/>
		<path fill="#5A707B" d="M320.94,890.324l-0.787,2.938h-0.119l-0.807-2.938l-2.33-7.651h-3.863v19.613h3.021v-7.913
			c0-2.063-0.305-6.139-0.508-8.038h0.082l1.273,4.556l2.143,6.197h1.977l2.158-6.197l1.309-4.556h0.09
			c-0.164,1.899-0.508,5.976-0.508,8.038v7.913h3.082v-19.613h-3.863L320.94,890.324z"/>
		<path fill="#5A707B" d="M339.489,880.213c-1.426,0-2.463,0.956-2.463,2.338c0,1.401,1.037,2.316,2.463,2.316
			s2.465-0.915,2.465-2.316C341.954,881.169,340.915,880.213,339.489,880.213z"/>
		<polygon fill="#5A707B" points="331.618,890.3 337.981,890.3 337.981,902.286 341.452,902.286 341.452,887.553 331.618,887.553 		
			"/>
		<path fill="#5A707B" d="M360.792,887.192c-1.691,0-2.668,1.026-3.354,2.476c-0.387-1.636-1.309-2.476-2.672-2.476
			c-1.703,0-2.625,0.963-3.275,2.236h-0.082l-0.266-1.876h-2.662v14.733h3.342v-10.295c0.555-1.236,1.07-1.843,1.85-1.843
			c0.826,0,1.168,0.649,1.168,1.944v10.193h2.875v-10.295c0.594-1.236,1.057-1.843,1.844-1.843c0.828,0,1.176,0.649,1.176,1.944
			v10.193h3.34v-10.439C364.075,888.903,362.876,887.192,360.792,887.192z"/>
		<path fill="#5A707B" d="M374.522,887.192c-2.539,0-4.955,0.986-6.74,2.056l1.287,2.297c1.516-0.84,3.154-1.563,4.813-1.563
			c2.402,0,3.385,1.239,3.508,2.889c-7.277,0.512-10.184,2.157-10.184,5.46c0,2.555,2.064,4.316,4.938,4.316
			c1.973,0,3.951-0.992,5.498-2.187h0.102l0.264,1.826h2.852v-8.72C380.858,889.464,378.612,887.192,374.522,887.192z
			 M377.39,898.135c-1.361,1.094-2.729,1.786-4.213,1.786c-1.459,0-2.607-0.562-2.607-1.858c0-1.59,1.527-2.677,6.82-3.024V898.135z
			"/>
		<path fill="#5A707B" d="M395.151,886.437l0.164,2.482h-0.082c-1.146-1.093-2.375-1.728-4.061-1.728
			c-3.34,0-6.479,2.94-6.479,7.746c0,4.859,2.498,7.708,6.289,7.708c1.654,0,3.295-0.93,4.439-2.082h0.102l0.266,1.722h2.832
			v-21.183h-3.471V886.437z M395.151,898.012c-1.025,1.22-2.111,1.764-3.33,1.764c-2.23,0-3.574-1.685-3.574-4.878
			c0-3.077,1.709-4.834,3.768-4.834c1.061,0,2.082,0.351,3.137,1.327V898.012z"/>
		<path fill="#5A707B" d="M410.093,887.192c-3.883,0-7.398,2.823-7.398,7.746c0,4.885,3.516,7.708,7.398,7.708
			c3.885,0,7.398-2.823,7.398-7.708C417.491,890.016,413.977,887.192,410.093,887.192z M410.093,899.816
			c-2.404,0-3.846-1.934-3.846-4.878c0-2.964,1.441-4.916,3.846-4.916s3.846,1.952,3.846,4.916
			C413.938,897.883,412.497,899.816,410.093,899.816z"/>
		<polygon fill="#5A707B" points="365.861,812.45 361.946,812.45 354.963,821.343 354.862,821.343 354.862,812.45 351.332,812.45 
			351.332,832.063 354.862,832.063 354.862,826.267 357.671,822.739 362.598,832.063 366.493,832.063 359.795,820.071 		"/>
		<path fill="#5A707B" d="M383.18,818.275c0-4.385-3.163-5.825-7.23-5.825h-6.557v19.613h3.508v-7.66h2.898l4.22,7.66h3.918
			l-4.683-8.175C381.605,823.069,383.18,821.247,383.18,818.275z M372.9,815.239h2.689c2.686,0,4.146,0.786,4.146,3.036
			c0,2.212-1.46,3.34-4.146,3.34H372.9V815.239z"/>
		<polygon fill="#5A707B" points="387.403,815.384 392.128,815.384 392.128,829.13 387.403,829.13 387.403,832.063 400.342,832.063 
			400.342,829.13 395.617,829.13 395.617,815.384 400.342,815.384 400.342,812.45 387.403,812.45 		"/>
		<path fill="#5A707B" d="M415.108,821.649v-0.12c2.317-0.601,3.395-2.406,3.395-4.257c0-3.594-2.917-4.822-6.959-4.822h-6.086
			v19.613h6.591c4.333,0,7.465-1.835,7.465-5.76C419.514,823.647,417.943,822.132,415.108,821.649z M408.928,815.233h2.382
			c2.535,0,3.786,0.669,3.786,2.458c0,1.826-1.118,2.818-3.861,2.818h-2.307V815.233z M411.688,829.281h-2.761v-6.121h2.761
			c2.933,0,4.418,0.847,4.418,2.913C416.106,828.292,414.564,829.281,411.688,829.281z"/>
		<polygon fill="#5A707B" points="436.342,829.13 431.617,829.13 431.617,815.384 436.342,815.384 436.342,812.45 423.403,812.45 
			423.403,815.384 428.128,815.384 428.128,829.13 423.403,829.13 423.403,832.063 436.342,832.063 		"/>
		<path fill="#5A707B" d="M285.872,477.278c0-6.482-3.475-9.717-9.263-9.717h-5.136v19.613h5.321
			C282.397,487.175,285.872,483.779,285.872,477.278z M276.395,484.345h-1.433v-13.953h1.433c3.743,0,5.887,2.08,5.887,6.887
			C282.282,482.103,280.139,484.345,276.395,484.345z"/>
		<path fill="#5A707B" d="M296.117,467.202c-4.551,0-7.714,3.628-7.714,10.076c0,6.57,3.163,10.257,7.714,10.257
			c4.55,0,7.714-3.687,7.714-10.257C303.831,470.83,300.667,467.202,296.117,467.202z M296.117,484.5
			c-2.497,0-4.124-2.601-4.124-7.222c0-4.498,1.627-7.042,4.124-7.042c2.496,0,4.124,2.544,4.124,7.042
			C300.241,481.899,298.613,484.5,296.117,484.5z"/>
		<path fill="#5A707B" d="M320.977,479.691v-12.13h-3.365v12.388c0,3.18-1.349,4.551-3.454,4.551c-2.087,0-3.395-1.371-3.395-4.551
			v-12.388h-3.508v12.13c0,5.354,2.581,7.844,6.902,7.844C318.459,487.535,320.977,485.045,320.977,479.691z"/>
		<path fill="#5A707B" d="M335.316,481.877l1.499,5.298h3.712l-6.354-19.613h-4.113l-6.354,19.613h3.57l1.518-5.298H335.316z
			 M330.263,476.746c0.591-2.069,1.177-4.295,1.73-6.465h0.12c0.533,2.17,1.16,4.396,1.751,6.465l0.672,2.375h-4.954
			L330.263,476.746z"/>
		<polygon fill="#5A707B" points="357.39,484.241 348.187,484.241 348.187,467.561 344.718,467.561 344.718,487.175 357.39,487.175 
					"/>
		<path fill="#5A707B" d="M364.793,481.877h6.523l1.499,5.298h3.712l-6.354-19.613h-4.113l-6.354,19.613h3.57L364.793,481.877z
			 M366.263,476.746c0.591-2.069,1.177-4.295,1.73-6.465h0.12c0.533,2.17,1.16,4.396,1.751,6.465l0.672,2.375h-4.954
			L366.263,476.746z"/>
		<path fill="#5A707B" d="M510.07,566.845l-3.875-0.994c-0.147,0.575-0.314,1.192-0.501,1.855c-1.047,3.721-2.002,6.698-3.005,9.373
			l3.746,1.404c1.043-2.782,2.031-5.862,3.108-9.692C509.74,568.096,509.915,567.45,510.07,566.845z"/>
		<path fill="#5A707B" d="M477.193,520.582c0.042,0.852,0.068,1.659,0.083,2.429l4-0.08c-0.017-0.807-0.043-1.655-0.089-2.549
			c-0.301-6.018-1.489-7.907-5.778-9.19l-1.146,3.832C476.491,515.69,476.955,515.829,477.193,520.582z"/>
		<path fill="#5A707B" d="M503.678,589.425l-3.992-0.25l-0.009,0.145c-0.136,2.236-0.262,4.607-0.262,6.788
			c0,1.877,0.09,3.588,0.282,5.385l3.977-0.426c-0.177-1.652-0.259-3.228-0.259-4.959c0-2.074,0.122-4.372,0.254-6.542
			L503.678,589.425z"/>
		<path fill="#5A707B" d="M440.907,512.165l0.395-3.98c-0.788-0.078-1.63-0.203-2.502-0.372c-4.36-0.844-6.969-1.531-8.457-2.23
			l-1.701,3.619c1.824,0.858,4.635,1.617,9.398,2.539C439.033,511.931,439.998,512.075,440.907,512.165z"/>
		<path fill="#5A707B" d="M482.847,541.741c1.563,1.412,2.723,2.015,3.879,2.015c1.724,0,2.519-1.336,2.858-1.906
			c0.051-0.085,0.097-0.172,0.127-0.216l-2.918-2.736c-0.175,0.187-0.315,0.379-0.434,0.56c-0.207-0.149-0.479-0.367-0.83-0.683
			c-1.744-1.579-2.836-3.048-3.436-4.622l-3.738,1.424C479.19,537.763,480.616,539.721,482.847,541.741z"/>
		<path fill="#5A707B" d="M480.709,750.201l0.111-0.171l-3.336-2.207l-0.172,0.266c-0.108,0.183-2.682,4.575-3.789,11.91
			l3.955,0.598C478.456,754.119,480.712,750.201,480.709,750.201z"/>
		<path fill="#5A707B" d="M504.317,557.751l2.139-3.381c-1.92-1.214-4.821-3.049-8.396-7.509l-3.121,2.502
			C498.931,554.344,502.303,556.476,504.317,557.751z"/>
		<path fill="#5A707B" d="M456.373,508.137c1.501,0,3.464,0.696,6,2.129l0.37,0.208l1.947-3.494l-0.351-0.196
			c-3.196-1.806-5.728-2.646-7.967-2.646c-2.028,0-3.537,0.673-4.865,1.4l1.92,3.508
			C454.453,508.485,455.303,508.137,456.373,508.137z"/>
		<path fill="#5A707B" d="M505.158,624.449c0.67-1.618,1.362-3.291,1.362-6.031c0-1.557-0.227-3.351-0.695-5.495l-0.06-0.273
			l-3.895,0.916l0.049,0.223c0.404,1.85,0.601,3.363,0.601,4.63c0,1.945-0.467,3.073-1.058,4.501
			c-0.148,0.358-0.3,0.723-0.447,1.107l3.734,1.434C504.885,625.109,505.023,624.776,505.158,624.449z"/>
		<path fill="#5A707B" d="M491.69,716.579l3.895,0.916c0.872-3.711,2.216-7.063,4.23-10.55l-3.463-2.002
			C494.165,708.726,492.641,712.533,491.69,716.579z"/>
		<path fill="#5A707B" d="M484.691,738.035l3.141,2.477c3.295-4.178,5.353-7.019,6.148-11.231l-3.93-0.742
			C489.41,731.919,487.597,734.349,484.691,738.035z"/>
		<path fill="#5A707B" d="M476.669,802.493c-0.208,0.234-0.41,0.462-0.609,0.682l2.967,2.684c0.209-0.231,0.423-0.471,0.641-0.718
			c4.147-4.697,5.886-7.773,6.002-10.62l-3.996-0.164C481.601,796.123,480.011,798.708,476.669,802.493z"/>
		<path fill="#5A707B" d="M397.17,499.45c-0.174,0.059-0.338,0.101-0.51,0.156c-3.155-3.925-7.988-6.443-13.416-6.443
			c-9.506,0-17.213,7.706-17.213,17.213s7.706,17.213,17.213,17.213s17.213-7.706,17.213-17.213c0-3.414-1.007-6.588-2.721-9.264
			L397.17,499.45z"/>
		<path fill="#5A707B" d="M509.226,660.798c-0.105-0.454-0.209-0.888-0.31-1.304l-3.887,0.949c0.099,0.4,0.198,0.82,0.301,1.263
			c0.53,2.268,0.8,5.07,0.8,8.331c0,0.584-0.009,1.176-0.026,1.776l3.998,0.119c0.02-0.64,0.028-1.272,0.028-1.896
			C510.13,666.471,509.825,663.361,509.226,660.798z"/>
		<path fill="#5A707B" d="M501.837,694.692l3.752,1.387c1.296-3.51,2.397-7.631,3.184-11.918l-3.934-0.723
			C504.093,687.503,503.055,691.395,501.837,694.692z"/>
		<path fill="#5A707B" d="M505.827,647.971c-0.63-2.812-1.186-6.398-1.8-11.628l-3.973,0.467c0.64,5.444,1.198,9.044,1.869,12.036
			L505.827,647.971z"/>
		<path fill="#5A707B" d="M445.181,877.34l-3.979-0.424l-0.202,1.897c-1.276-0.708-2.743-1.113-4.306-1.113
			c-4.914,0-8.898,3.984-8.898,8.898s3.984,8.898,8.898,8.898s8.898-3.984,8.898-8.898c0-1.45-0.354-2.815-0.97-4.025
			L445.181,877.34z"/>
		<path fill="#5A707B" d="M408.691,495.352l0.82,3.914c0.927-0.193,1.786-0.288,2.629-0.288c2.357,0,4.702,0.752,7.379,2.367
			l2.066-3.426c-3.282-1.979-6.372-2.941-9.445-2.941C411.019,494.978,409.89,495.1,408.691,495.352z"/>
		<path fill="#5A707B" d="M480.242,782.974c-0.538-1.159-0.98-2.342-1.354-3.618c-0.714-2.438-1.229-4.909-1.532-7.344l-3.969,0.492
			c0.328,2.647,0.888,5.331,1.661,7.975c0.431,1.47,0.942,2.837,1.564,4.179L480.242,782.974z"/>
		<path fill="#5A707B" d="M454.342,833.397c-1.198,1.102-2.419,2.234-3.638,3.626c-1.447-1.018-3.207-1.622-5.111-1.622
			c-4.914,0-8.898,3.984-8.898,8.898c0,4.066,2.73,7.487,6.454,8.55c-0.687,3.161-1.072,6.82-1.288,12.23l3.996,0.16
			c0.207-5.18,0.567-8.639,1.205-11.565l-2.441-0.532c0.319,0.035,0.643,0.055,0.972,0.055c4.914,0,8.898-3.984,8.898-8.898
			c0-1.55-0.398-3.007-1.095-4.276c1.182-1.406,2.396-2.526,3.653-3.682c0.594-0.545,1.183-1.087,1.765-1.655l-2.795-2.861
			C455.466,832.364,454.906,832.878,454.342,833.397z"/>
		<path fill="#5A707B" d="M462.202,821.597c-0.108,0.326-0.218,0.643-0.33,0.951l3.76,1.365c0.124-0.342,0.247-0.695,0.367-1.058
			c2.218-6.684,2.864-7.951,3.938-8.837l-2.548-3.084C465.385,812.59,464.531,814.578,462.202,821.597z"/>
	</g>
</g>
<g>
</g>
<g>
</g>
<g>
</g>
<g>
</g>
<g>
</g>
<g>
</g>
</svg>
