<?xml version="1.0" encoding="utf-8"?>
<!-- Generator: Adobe Illustrator 24.0.1, SVG Export Plug-In . SVG Version: 6.00 Build 0)  -->
<!DOCTYPE svg PUBLIC "-//W3C//DTD SVG 1.1//EN" "http://www.w3.org/Graphics/SVG/1.1/DTD/svg11.dtd" [
	<!ENTITY ns_extend "http://ns.adobe.com/Extensibility/1.0/">
	<!ENTITY ns_ai "http://ns.adobe.com/AdobeIllustrator/10.0/">
	<!ENTITY ns_graphs "http://ns.adobe.com/Graphs/1.0/">
	<!ENTITY ns_vars "http://ns.adobe.com/Variables/1.0/">
	<!ENTITY ns_imrep "http://ns.adobe.com/ImageReplacement/1.0/">
	<!ENTITY ns_sfw "http://ns.adobe.com/SaveForWeb/1.0/">
	<!ENTITY ns_custom "http://ns.adobe.com/GenericCustomNamespace/1.0/">
	<!ENTITY ns_adobe_xpath "http://ns.adobe.com/XPath/1.0/">
]>
<svg version="1.1" id="Calque_1" xmlns:x="&ns_extend;" xmlns:i="&ns_ai;" xmlns:graph="&ns_graphs;"
	 xmlns="http://www.w3.org/2000/svg" xmlns:xlink="http://www.w3.org/1999/xlink" x="0px" y="0px" viewBox="0 0 606.7 1068.3"
	 style="enable-background:new 0 0 606.7 1068.3;" xml:space="preserve">
<style type="text/css">
	.st0{fill:#FFFFFF;}
	.st1{fill:#5A707B;}
</style>
<metadata>
	<sfw  xmlns="&ns_sfw;">
		<slices></slices>
		<sliceSourceBounds  bottomLeftOrigin="true" height="1068.3" width="606.7" x="-8.9" y="0.3"></sliceSourceBounds>
	</sfw>
</metadata>
<g>
	<g>
		<g>
			<g>
				<g>
					<path class="st0" d="M8.9,354.6l53.8,9.2h0.2c1,0,9.6-0.1,12-4.4c1-1.8,0.7-4-0.8-6.5c-5.6-9-13.4-15.7-13.7-16l-0.6-0.5
						l-0.5,0.2c-0.2-0.3-0.7-1.3-0.7-4.4v-15.7l-3.3-18.8c4.1,10.5,9.6,24.3,11,26.7c0.3,0.5,0.6,1,0.8,1.6c1.9,3.6,4,7.6,12.3,9.7
						l9,2.2c4.1,1,5.8-0.5,7.2-1.7c1.7-1.5,3.5-3.1,13.8,2.7c3.1,1.7,5.9,3.2,8.3,4.5c11.6,6.1,14.7,7.7,11.3,18.8
						c-1.2,3.8-2,4.1-2,4.1c-0.3,0-0.8-0.7-1-1c-0.4-0.5-1-1.3-2-0.9c-1.2,0.5-1.2,0.5,0.5,12.9c0.5,3.5,0.9,6.4,1.2,8.9
						c1.9,14.4,1.9,14.4,4.2,24.2l0.4,1.7c3.2,13.5,4.3,18.6,15.2,22.2c3.7,1.2,6.4,0.8,8.4,0.5c1.3-0.2,2-0.3,2.4,0
						c1.1,0.9,1.6,6.2,1.9,10.7c0.4,6.2,0.7,9.9,1,12.3c0.5,5,0.5,5-1,13.2c-0.8,4.5-5.3,5.7-8.6,6.6c-2.2,0.6-3.8,1-3.9,2.5
						c-0.2,1.8,1.6,3.2,14.5,9.1c30.2,14,36.3,15.9,41.6,16.9c2.6,0.5,4.6-0.4,6.3-1.2c2.5-1.1,4.2-2,7.7,0.9
						c1.4,1.2,2.9,2.2,4.2,1.5c0,0,0,0,0.1,0c0.6,1,1.3,2.2,2.2,3.8c3.1,5.3,3.3,10.7,3.4,14.6c0.1,3.4,0.2,5.9,2.1,7
						c1.7,1,4.1,0.4,8.6-2c7.7-4.1,8.2-9.3,8.4-11.9c1,0.7,2.7,2.2,4.8,3.9c5.4,4.5,7.9,7.7,9.8,10.3c2.9,3.8,4.7,6.3,13,9
						c10.8,3.6,23.5,4.4,28.5,4.5c0.1,0.5,0.5,0.8,0.9,1c1.3,0.5,2.1-1.1,2.4-1.6l0.9-1.8h-1.6c0.1-0.9,0.4-2.2,0.8-4.1
						c2.3-10.4,0-16.2-0.1-16.5l-0.1-0.2l-0.2-0.2c-2.1-2.2-4.5-6-3.9-7.3c0.1-0.2,0.7-1,3.8-0.7c10.7,1.1,17.2,7.4,17.3,7.5
						l1.3,1.3l0.7-1.7c2.5-5.8,1.6-10.4,0.7-12.8c13.6-1,17.9-0.7,19.9-0.6c2.5,0.2,2.6,0.1,8.8-1.6c3.5-1,5.5-1,6-0.1
						c0.2,0.3,0.5,0.9,1.3,0.9c1,0.1,1.4-0.2,5.6-4.5c7-7,14-8.3,16.3-8.5c0,1.2-0.2,3.1-0.5,6.4c-0.5,5.9-2.1,6-4.2,6.2
						c-1.9,0.2-4.6,0.5-5.8,4.8c-1.8,6.3-9.3,9.5-11.1,10.2c-2.2-0.7-7.5-2.3-9.4,0c-1.5,1.8,0,4.5,0.5,5.3c4.7,8.3,16.7,4.5,18.2,4
						c2.4-0.3,6.2-0.3,7.3,0.7c0.2,0.1,0.2,0.2,0.2,0.3c0,3.2,3.6,10.8,4.8,13.2c-0.8,1.2-3,3.8-6.1,4.6c-3.7,0.9-10.2,0.2-11.6,0
						c-1.6-1-4.9-1.9-8,0.8c-1.9,1.7-2.3,4-2.7,6.4c-0.4,2.4-0.9,5.2-3,7.9c-1.9,2.4-5.4,4-8.5,5.4c-3.9,1.8-7.5,3.4-7.5,6.6
						c0,3.2,4.4,10.2,10.2,19.1c2.1,3.2,3.8,5.9,4.5,7.3c1,1.9,2.6,3.5,4.2,5.3c2.5,2.6,5.1,5.2,5.7,9c0.2,1.4,0.4,2.3,0.6,3.1
						c0.6,3,0.6,3,0.6,10.1c0,3.6-0.7,6.8-1.4,9.6c-1,4.2-1.8,7.9,0.6,10.3l0.2,0.2c3.4,3.4,12.4,12.4,23.2,16.9
						c3.8,1.6,5.6,1.2,6.7,0.3c0.7,0.9,2,2.8,3.9,5.7c1.1,1.6,2.4,3.5,4,5.9c14.7,21.4,21.5,28.3,27.1,33.8c1.7,1.7,3.1,2.8,4.5,3.9
						c3.3,2.7,6,4.8,9.9,12.6c2.5,5,4.8,8.3,6.8,11.2c2.5,3.6,4.7,6.7,6.6,12.2c1.3,3.9,2.1,6.9,2.8,9.8c1.2,4.5,2.3,8.8,5.1,15
						c2.3,5.3,3.9,6.3,4.8,6.8c0,0.5-0.2,1.4-0.4,2.5c-0.5,2.8,0.4,6.5,1.2,10.5c1.3,6,2.8,12.7-0.4,15.8c-1.1,1.1-2.2,2-3.2,2.8
						c-4.2,3.6-7.5,6.4-12.1,16.7c-0.9,2-1.8,3.8-2.5,5.4c-4.1,8.6-6.5,13.8-6.5,25.4c0,4.7,0.5,9.3,1.1,13.7
						c0.9,7.9,1.8,15.4-1,21.7c-1.5,3.3-2.4,5.1-3,6.5c-1.4,2.8-2.2,4.4-6,14.9c-3.7,10.4-5.7,20.6-7.3,28.8
						c-0.8,4.2-1.5,7.9-2.3,10.6c-1.8,6.4-1.3,20.8-1,29.4c0.1,2.4,0.1,4.3,0.1,5.5c0,1.9-1.3,4.9-2.7,8.1c-2.3,5.4-5.2,12.2-3.8,18
						c-0.2,2.2-1.2,17.6,10.5,32c4.5,5.6,10.4,10.3,17.5,14.1h163.6V0l0,0H81.4l26.5,71.8c0,0,4,70.5-7.8,82.3
						c-9.6,9.6-23.1,28.4-32,40.9c-2.5,3.5-4.7,6.6-6.2,8.6c-2.1,2.8-3.5,5.5-4.7,7.8c-2.7,5.2-4.9,9.4-13.8,13.1
						c-4.7,2-6.8,3.5-7.1,5.4c-0.4,2,1.3,3.5,3.3,5.5c1.8,1.7,4,3.7,5.4,6.6c3.3,6.6,1.4,9.7,0.6,10.5H19l-11,3.7
						c0,0-4.4,3.1-5.3,6.7c-0.9,3.6-2.2,17.3-0.4,18.7c1.8,1.3,15.6,4.8,15.6,4.8h1.3c1.8,0,5.9,0.6,6.7,2.2c0.4,1-0.3,2.6-2,4.6
						c-7.6,8.8-14.3,13.3-14.3,13.3l-0.6,0.4l-3.1,5.3l3.1,6.9l7.6,13H8.9c0,0-9.3,1.5-8.9,5c0.4,3.6,0,5.3,0,6.7
						c0,1.3,1.3,4,3.1,5.3S8.9,354.6,8.9,354.6z"/>
				</g>
			</g>
		</g>
	</g>
	<g>
		<polygon class="st1" points="224.3,890.5 217.6,890.5 217.6,882.7 214.1,882.7 214.1,902.3 217.6,902.3 217.6,893.6 224.3,893.6 
			224.3,902.3 227.9,902.3 227.9,882.7 224.3,882.7 		"/>
		<path class="st1" d="M239,887.2c-3.9,0-7.4,2.8-7.4,7.7s3.5,7.7,7.4,7.7s7.4-2.8,7.4-7.7S242.9,887.2,239,887.2z M239,899.8
			c-2.4,0-3.8-1.9-3.8-4.9s1.4-4.9,3.8-4.9c2.4,0,3.8,2,3.8,4.9C242.8,897.9,241.4,899.8,239,899.8z"/>
		<path class="st1" d="M260.6,899.9c-2.5,0-3.4-1.1-3.4-3.5v-6h6.7v-2.7h-6.7v-4.6h-2.9l-0.4,4.6l-4.1,0.2v2.6h3.9v6.1
			c0,3.8,1.5,6.3,6,6.3c1.9,0,3.4-0.4,4.7-0.8l-0.7-2.5C262.8,899.6,261.8,899.9,260.6,899.9z"/>
		<path class="st1" d="M275.4,887.2c-3.9,0-7.6,2.9-7.6,7.7c0,4.9,3.5,7.7,8.1,7.7c2.2,0,4.2-0.7,5.8-1.7l-1.2-2.1
			c-1.3,0.8-2.6,1.2-4.1,1.2c-2.7,0-4.7-1.3-5-4h10.8c0.1-0.4,0.2-1.1,0.2-1.7C282.3,890.1,279.8,887.2,275.4,887.2z M275.5,889.9
			c2.1,0,3.4,1.2,3.6,3.6h-7.8C271.8,891.1,273.5,889.9,275.5,889.9z"/>
		<path class="st1" d="M296.9,899.8c-1.5,0-2.6-0.7-2.6-2.7v-16h-8.4v2.7h4.9v13.1c0,3.6,1.8,5.7,5.3,5.7c1.7,0,2.7-0.3,4.2-0.8
			l-0.8-2.6C298.5,899.6,297.6,899.8,296.9,899.8z"/>
		<path class="st1" d="M329.8,890.3l-0.8,2.9h-0.1l-0.8-2.9l-2.3-7.7h-3.9v19.6h3v-7.9c0-2.1-0.3-6.1-0.5-8h0.1l1.3,4.6l2.1,6.2h2
			l2.2-6.2l1.3-4.6h0.1c-0.2,1.9-0.5,6-0.5,8v7.9h3.1v-19.6h-3.9L329.8,890.3z"/>
		<path class="st1" d="M348.4,880.2c-1.4,0-2.5,1-2.5,2.3c0,1.4,1,2.3,2.5,2.3s2.5-0.9,2.5-2.3C350.9,881.2,349.8,880.2,348.4,880.2
			z"/>
		<polygon class="st1" points="340.5,890.3 346.9,890.3 346.9,902.3 350.4,902.3 350.4,887.6 340.5,887.6 		"/>
		<path class="st1" d="M369.7,887.2c-1.7,0-2.7,1-3.4,2.5c-0.4-1.6-1.3-2.5-2.7-2.5c-1.7,0-2.6,1-3.3,2.2h-0.1l-0.3-1.9h-2.7v14.7
			h3.3V892c0.6-1.2,1.1-1.8,1.9-1.8s1.2,0.6,1.2,1.9v10.2h2.9V892c0.6-1.2,1.1-1.8,1.8-1.8c0.8,0,1.2,0.6,1.2,1.9v10.2h3.3v-10.4
			C373,888.9,371.8,887.2,369.7,887.2z"/>
		<path class="st1" d="M383.4,887.2c-2.5,0-5,1-6.7,2.1l1.3,2.3c1.5-0.8,3.2-1.6,4.8-1.6c2.4,0,3.4,1.2,3.5,2.9
			c-7.3,0.5-10.2,2.2-10.2,5.5c0,2.6,2.1,4.3,4.9,4.3c2,0,4-1,5.5-2.2h0.1l0.3,1.8h2.9v-8.7C389.8,889.5,387.5,887.2,383.4,887.2z
			 M386.3,898.1c-1.4,1.1-2.7,1.8-4.2,1.8s-2.6-0.6-2.6-1.9c0-1.6,1.5-2.7,6.8-3L386.3,898.1L386.3,898.1z"/>
		<path class="st1" d="M404.1,886.4l0.2,2.5h-0.1c-1.1-1.1-2.4-1.7-4.1-1.7c-3.3,0-6.5,2.9-6.5,7.7c0,4.9,2.5,7.7,6.3,7.7
			c1.7,0,3.3-0.9,4.4-2.1h0.1l0.3,1.7h2.8V881H404L404.1,886.4L404.1,886.4z M404.1,898c-1,1.2-2.1,1.8-3.3,1.8
			c-2.2,0-3.6-1.7-3.6-4.9c0-3.1,1.7-4.8,3.8-4.8c1.1,0,2.1,0.4,3.1,1.3V898L404.1,898z"/>
		<path class="st1" d="M419,887.2c-3.9,0-7.4,2.8-7.4,7.7s3.5,7.7,7.4,7.7s7.4-2.8,7.4-7.7S422.9,887.2,419,887.2z M419,899.8
			c-2.4,0-3.8-1.9-3.8-4.9s1.4-4.9,3.8-4.9s3.8,2,3.8,4.9C422.8,897.9,421.4,899.8,419,899.8z"/>
		<polygon class="st1" points="374.8,812.5 370.8,812.5 363.9,821.3 363.8,821.3 363.8,812.5 360.2,812.5 360.2,832.1 363.8,832.1 
			363.8,826.3 366.6,822.7 371.5,832.1 375.4,832.1 368.7,820.1 		"/>
		<path class="st1" d="M392.1,818.3c0-4.4-3.2-5.8-7.2-5.8h-6.6v19.6h3.5v-7.7h2.9l4.2,7.7h3.9l-4.7-8.2
			C390.5,823.1,392.1,821.2,392.1,818.3z M381.8,815.2h2.7c2.7,0,4.1,0.8,4.1,3s-1.5,3.3-4.1,3.3h-2.7V815.2z"/>
		<polygon class="st1" points="396.3,815.4 401,815.4 401,829.1 396.3,829.1 396.3,832.1 409.2,832.1 409.2,829.1 404.5,829.1 
			404.5,815.4 409.2,815.4 409.2,812.5 396.3,812.5 		"/>
		<path class="st1" d="M424,821.6L424,821.6c2.3-0.7,3.4-2.5,3.4-4.4c0-3.6-2.9-4.8-7-4.8h-6.1V832h6.6c4.3,0,7.5-1.8,7.5-5.8
			C428.4,823.6,426.8,822.1,424,821.6z M417.8,815.2h2.4c2.5,0,3.8,0.7,3.8,2.5s-1.1,2.8-3.9,2.8h-2.3V815.2z M420.6,829.3h-2.8
			v-6.1h2.8c2.9,0,4.4,0.8,4.4,2.9C425,828.3,423.5,829.3,420.6,829.3z"/>
		<polygon class="st1" points="445.2,829.1 440.5,829.1 440.5,815.4 445.2,815.4 445.2,812.5 432.3,812.5 432.3,815.4 437,815.4 
			437,829.1 432.3,829.1 432.3,832.1 445.2,832.1 		"/>
		<path class="st1" d="M294.8,477.3c0-6.5-3.5-9.7-9.3-9.7h-5.1v19.6h5.3C291.3,487.2,294.8,483.8,294.8,477.3z M285.3,484.3h-1.4
			v-14h1.4c3.7,0,5.9,2.1,5.9,6.9C291.2,482.1,289,484.3,285.3,484.3z"/>
		<path class="st1" d="M305,467.2c-4.6,0-7.7,3.6-7.7,10.1c0,6.6,3.2,10.3,7.7,10.3s7.7-3.7,7.7-10.3
			C312.7,470.8,309.6,467.2,305,467.2z M305,484.5c-2.5,0-4.1-2.6-4.1-7.2c0-4.5,1.6-7,4.1-7s4.1,2.5,4.1,7
			C309.1,481.9,307.5,484.5,305,484.5z"/>
		<path class="st1" d="M329.9,479.7v-12.1h-3.4V480c0,3.2-1.3,4.6-3.5,4.6c-2.1,0-3.4-1.4-3.4-4.6v-12.4h-3.5v12.1
			c0,5.4,2.6,7.8,6.9,7.8C327.4,487.5,329.9,485,329.9,479.7z"/>
		<path class="st1" d="M344.2,481.9l1.5,5.3h3.7l-6.4-19.6h-4.1l-6.4,19.6h3.6l1.5-5.3H344.2z M339.2,476.7c0.6-2.1,1.2-4.3,1.7-6.5
			h0.1c0.5,2.2,1.2,4.4,1.8,6.5l0.7,2.4h-5L339.2,476.7z"/>
		<polygon class="st1" points="366.3,484.2 357.1,484.2 357.1,467.6 353.6,467.6 353.6,487.2 366.3,487.2 		"/>
		<path class="st1" d="M373.7,481.9h6.5l1.5,5.3h3.7l-6.4-19.6h-4.1l-6.4,19.6h3.6L373.7,481.9z M375.2,476.7
			c0.6-2.1,1.2-4.3,1.7-6.5h0.1c0.5,2.2,1.2,4.4,1.8,6.5l0.7,2.4h-5L375.2,476.7z"/>
		<path class="st1" d="M519,566.8l-3.9-1c-0.1,0.6-0.3,1.2-0.5,1.9c-1,3.7-2,6.7-3,9.4l3.7,1.4c1-2.8,2-5.9,3.1-9.7
			C518.6,568.1,518.8,567.5,519,566.8z"/>
		<path class="st1" d="M486.1,520.6c0,0.9,0.1,1.7,0.1,2.4l4-0.1c0-0.8,0-1.7-0.1-2.5c-0.3-6-1.5-7.9-5.8-9.2l-1.1,3.8
			C485.4,515.7,485.9,515.8,486.1,520.6z"/>
		<path class="st1" d="M512.6,589.4l-4-0.3v0.1c-0.1,2.2-0.3,4.6-0.3,6.8c0,1.9,0.1,3.6,0.3,5.4l4-0.4c-0.2-1.7-0.3-3.2-0.3-5
			C512.3,593.9,512.4,591.6,512.6,589.4L512.6,589.4z"/>
		<path class="st1" d="M449.8,512.2l0.4-4c-0.8-0.1-1.6-0.2-2.5-0.4c-4.4-0.8-7-1.5-8.5-2.2l-1.7,3.6c1.8,0.9,4.6,1.6,9.4,2.5
			C447.9,511.9,448.9,512.1,449.8,512.2z"/>
		<path class="st1" d="M491.7,541.7c1.6,1.4,2.7,2,3.9,2c1.7,0,2.5-1.3,2.9-1.9c0.1-0.1,0.1-0.2,0.1-0.2l-2.9-2.7
			c-0.2,0.2-0.3,0.4-0.4,0.6c-0.2-0.1-0.5-0.4-0.8-0.7c-1.7-1.6-2.8-3-3.4-4.6l-3.7,1.4C488.1,537.8,489.5,539.7,491.7,541.7z"/>
		<path class="st1" d="M489.6,750.2l0.1-0.2l-3.3-2.2l-0.2,0.3c-0.1,0.2-2.7,4.6-3.8,11.9l4,0.6
			C487.4,754.1,489.6,750.2,489.6,750.2z"/>
		<path class="st1" d="M513.2,557.8l2.1-3.4c-1.9-1.2-4.8-3-8.4-7.5l-3.1,2.5C507.8,554.3,511.2,556.5,513.2,557.8z"/>
		<path class="st1" d="M465.3,508.1c1.5,0,3.5,0.7,6,2.1l0.4,0.2l1.9-3.5l-0.4-0.2c-3.2-1.8-5.7-2.6-8-2.6c-2,0-3.5,0.7-4.9,1.4
			l1.9,3.5C463.4,508.5,464.2,508.1,465.3,508.1z"/>
		<path class="st1" d="M514.1,624.4c0.7-1.6,1.4-3.3,1.4-6c0-1.6-0.2-3.4-0.7-5.5l-0.1-0.3l-3.9,0.9v0.2c0.4,1.8,0.6,3.4,0.6,4.6
			c0,1.9-0.5,3.1-1.1,4.5c-0.1,0.4-0.3,0.7-0.4,1.1l3.7,1.4C513.8,625.1,513.9,624.8,514.1,624.4z"/>
		<path class="st1" d="M500.6,716.6l3.9,0.9c0.9-3.7,2.2-7.1,4.2-10.5l-3.5-2C503.1,708.7,501.5,712.5,500.6,716.6z"/>
		<path class="st1" d="M493.6,738l3.1,2.5c3.3-4.2,5.4-7,6.1-11.2l-3.9-0.7C498.3,731.9,496.5,734.3,493.6,738z"/>
		<path class="st1" d="M485.6,802.5c-0.2,0.2-0.4,0.5-0.6,0.7l3,2.7c0.2-0.2,0.4-0.5,0.6-0.7c4.1-4.7,5.9-7.8,6-10.6l-4-0.2
			C490.5,796.1,488.9,798.7,485.6,802.5z"/>
		<path class="st1" d="M406.1,499.5c-0.2,0.1-0.3,0.1-0.5,0.2c-3.2-3.9-8-6.4-13.4-6.4c-9.5,0-17.2,7.7-17.2,17.2
			c0,9.5,7.7,17.2,17.2,17.2s17.2-7.7,17.2-17.2c0-3.4-1-6.6-2.7-9.3L406.1,499.5z"/>
		<path class="st1" d="M518.1,660.8c-0.1-0.5-0.2-0.9-0.3-1.3l-3.9,0.9c0.1,0.4,0.2,0.8,0.3,1.3c0.5,2.3,0.8,5.1,0.8,8.3
			c0,0.6,0,1.2,0,1.8l4,0.1c0-0.6,0-1.3,0-1.9C519,666.5,518.7,663.4,518.1,660.8z"/>
		<path class="st1" d="M510.7,694.7l3.8,1.4c1.3-3.5,2.4-7.6,3.2-11.9l-3.9-0.7C513,687.5,512,691.4,510.7,694.7z"/>
		<path class="st1" d="M514.7,648c-0.6-2.8-1.2-6.4-1.8-11.6l-4,0.5c0.6,5.4,1.2,9,1.9,12L514.7,648z"/>
		<path class="st1" d="M454.1,877.3l-4-0.4l-0.2,1.9c-1.3-0.7-2.7-1.1-4.3-1.1c-4.9,0-8.9,4-8.9,8.9s4,8.9,8.9,8.9s8.9-4,8.9-8.9
			c0-1.5-0.4-2.8-1-4L454.1,877.3z"/>
		<path class="st1" d="M417.6,495.4l0.8,3.9c0.9-0.2,1.8-0.3,2.6-0.3c2.4,0,4.7,0.8,7.4,2.4l2.1-3.4c-3.3-2-6.4-2.9-9.4-2.9
			C419.9,495,418.8,495.1,417.6,495.4z"/>
		<path class="st1" d="M489.1,783c-0.5-1.2-1-2.3-1.4-3.6c-0.7-2.4-1.2-4.9-1.5-7.3l-4,0.5c0.3,2.6,0.9,5.3,1.7,8
			c0.4,1.5,0.9,2.8,1.6,4.2L489.1,783z"/>
		<path class="st1" d="M463.2,833.4c-1.2,1.1-2.4,2.2-3.6,3.6c-1.4-1-3.2-1.6-5.1-1.6c-4.9,0-8.9,4-8.9,8.9c0,4.1,2.7,7.5,6.5,8.5
			c-0.7,3.2-1.1,6.8-1.3,12.2l4,0.2c0.2-5.2,0.6-8.6,1.2-11.6l-2.4-0.5c0.3,0,0.6,0.1,1,0.1c4.9,0,8.9-4,8.9-8.9
			c0-1.5-0.4-3-1.1-4.3c1.2-1.4,2.4-2.5,3.7-3.7c0.6-0.5,1.2-1.1,1.8-1.7l-2.8-2.9C464.4,832.4,463.8,832.9,463.2,833.4z"/>
		<path class="st1" d="M471.1,821.6c-0.1,0.3-0.2,0.6-0.3,1l3.8,1.4c0.1-0.3,0.2-0.7,0.4-1.1c2.2-6.7,2.9-8,3.9-8.8l-2.5-3.1
			C474.3,812.6,473.4,814.6,471.1,821.6z"/>
	</g>
</g>
</svg>
