<?xml version="1.0" encoding="utf-8"?>
<!-- Generator: Adobe Illustrator 24.0.1, SVG Export Plug-In . SVG Version: 6.00 Build 0)  -->
<!DOCTYPE svg PUBLIC "-//W3C//DTD SVG 1.1//EN" "http://www.w3.org/Graphics/SVG/1.1/DTD/svg11.dtd" [
	<!ENTITY ns_extend "http://ns.adobe.com/Extensibility/1.0/">
	<!ENTITY ns_ai "http://ns.adobe.com/AdobeIllustrator/10.0/">
	<!ENTITY ns_graphs "http://ns.adobe.com/Graphs/1.0/">
	<!ENTITY ns_vars "http://ns.adobe.com/Variables/1.0/">
	<!ENTITY ns_imrep "http://ns.adobe.com/ImageReplacement/1.0/">
	<!ENTITY ns_sfw "http://ns.adobe.com/SaveForWeb/1.0/">
	<!ENTITY ns_custom "http://ns.adobe.com/GenericCustomNamespace/1.0/">
	<!ENTITY ns_adobe_xpath "http://ns.adobe.com/XPath/1.0/">
]>
<svg version="1.1" id="Calque_1" xmlns:x="&ns_extend;" xmlns:i="&ns_ai;" xmlns:graph="&ns_graphs;"
	 xmlns="http://www.w3.org/2000/svg" xmlns:xlink="http://www.w3.org/1999/xlink" x="0px" y="0px" viewBox="0 0 778.335 909.826"
	 enable-background="new 0 0 778.335 909.826" xml:space="preserve">
<metadata>
	<sfw  xmlns="&ns_sfw;">
		<slices></slices>
		<sliceSourceBounds  bottomLeftOrigin="true" height="909.826" width="778.335" x="201.322" y="-917.692"></sliceSourceBounds>
	</sfw>
</metadata>
<g opacity="0.8">
	<g>
		<path fill="#F3EBE4" d="M439.607,863.181c-1.97,2.955-3.961,5.889-6.035,8.76c-1.017,1.533-0.599,3.601,0.934,4.619
			c0.693,0.46,1.534,0.644,2.356,0.516c14.144-1.66,27.615,6.473,32.734,19.762c-0.796,2.347-1.572,4.715-2.389,7.062
			c-1.551,4.526,5.071,8.383,7.691,4.003c0.461-0.796,0.901-1.593,1.362-2.389c0.704,0.197,1.458-0.052,1.907-0.629
			c11.233-13.223,30.156-14.083,45.747-9.451c11.568,3.416,24.058,12.762,36.149,13.349c10.478,0.503,15.298-10.478,20.097-18.106
			c9.137-14.292,18.309-28.563,27.516-42.813c18.19-28.228,37.051-56.121,54.612-84.747c7.838-12.762,13.831-30.617,3.479-41.912
			l16.283-2.557c1.167-0.189,2.143-0.989,2.557-2.096c11.652-44.993,23.597-89.902,35.626-134.811
			c5.931-22.276,12.05-44.511,17.771-66.829c5.03-19.657,9.409-40.047,6.035-60.375c-1.97-11.903-8.278-23.052-7.586-35.29
			c0.545-10.059,4.904-19.615,5.7-29.695c1.572-19.845-3.437-40.928-7.775-60.165c-4.264-19.11-11.977-37.283-22.758-53.627
			c-11.673-17.897-24.519-34.641-29.926-55.702v-0.126c20.956-36.548,46.104-71.775,54.046-113.457
			c0.243-2.847-1.85-5.361-4.694-5.637c-16.304-0.545-32.587-1.488-48.891-2.305c-2.527-0.184-4.744,1.671-5.009,4.191
			c-2.247,19.311-5.712,38.462-10.373,57.336c-0.94,0.326-1.641,1.121-1.844,2.096c-6.3,26.619-20.121,50.865-39.817,69.847
			c-21.48,20.6-49.226,29.632-73.703,45.664c-21.668,14.229-40.207,32.725-54.486,54.36c-6.865,10.423-12.737,21.466-17.54,32.985
			c-5.972,14.334-10.101,29.653-22.214,40.236c-1.74,1.526-1.914,4.174-0.387,5.915c0.447,0.51,1.012,0.904,1.645,1.148
			c10.478,5.428-10.855,14.774-14.376,19.468c-4.61,6.119-7.167,14.963-9.87,22.004c-6.957,18.149-12.342,36.862-16.094,55.932
			c-3.907,19.99-6.059,40.283-6.434,60.647c-0.44,20.726,0,41.745-9.891,60.647c-1.196,1.836-0.776,4.284,0.964,5.616
			c3.602,1.915,6.872,4.399,9.682,7.356c-9.493,4.589-13.852,15.172-15.759,25.86c-4.003,22.318-1.97,47.298-0.838,69.847
			C398.051,784.03,409.451,829.421,439.607,863.181z M509.224,658.166c-16.304,33.404-36.715,62.408-60.773,91.139
			c-14.9,17.75-30.387,39.461-30.994,62.554c-1.341-3.709-2.536-7.481-3.646-11.295c9.053-60.773,69.407-93.234,95.854-144.891
			c-0.168,0.859-0.314,1.677-0.419,2.515L509.224,658.166z M442.876,869.824l3.458-5.05c0.829-1.214,0.752-2.831-0.189-3.961
			c-10.443-11.708-18.889-25.053-25.001-39.502c-3.604-32.964,24.393-60.605,44.008-84.915
			c15.382-19.07,30.659-39.817,41.912-62.114c-1.551,12.574-2.808,25.147-3.625,37.868c-2.096,32.587-3.814,64.964-10.017,97.09
			c-5.331,26.781-12.33,53.202-20.956,79.11C466.766,877.197,455.398,870.08,442.876,869.824L442.876,869.824z M508.176,768.878
			c-1.245,26.388-6.118,52.479-14.481,77.538c6.582-25.488,11.427-51.394,14.502-77.538H508.176z M553.316,899.121
			c-10.373-4.338-20.411-9.367-31.434-11.924c-13.873-3.227-28.836-1.991-39.272,6.853c19.722-37.484,31.224-78.742,33.739-121.022
			c2.62-15.277,4.925-30.638,7.209-45.978c1.802,23.555,10.792,46.104,21.983,67.06c14.502,27.348,43.212,60.501,30.533,92.794
			l-0.105,0.168c-0.001-0.069-0.057-0.125-0.127-0.125c-0.069,0.001-0.124,0.056-0.125,0.125v0.461
			C570.144,896.103,563.249,903.291,553.316,899.121L553.316,899.121z M582.948,875.189c3.311-20.663-10.604-43.023-21.103-60.207
			c-20.034-32.734-38.874-68.506-34.389-108.113c0.079-0.548-0.136-1.097-0.566-1.446c0.189-1.132,0.377-2.242,0.566-3.374
			c4.584,24.439,13.316,47.914,25.818,69.407c17.058,29.339,46.837,60.081,34.641,95.958l-3.961,6.161L582.948,875.189z
			 M592.693,859.933c5.7-24.309-9.263-49.457-22.779-69.533c-21.312-31.644-34.934-64.713-40.257-101.554
			c4.024-22.318,8.948-44.385,14.669-66.284c5.847,27.117,21.292,51.762,37.931,73.85c11.966,15.885,24.833,31.141,36.17,47.487
			c10.772,15.529,22.276,35.5,13.035,54.486c-0.148,0.294-0.089,0.65,0.147,0.88l-0.251,0.398
			C618.434,819.711,605.546,839.801,592.693,859.933z M549.669,602.172c15.487,66.41,91.537,107.966,93.486,178.756l-6.811,10.667
			c8.152-25.986-16.388-53.857-31.288-72.76c-25.504-32.398-52.391-65.341-58.154-106.646c0.88-3.29,1.823-6.622,2.745-9.975
			L549.669,602.172z M672.934,713.239c-4.841,1.614-10.897,1.697-15.927,2.515c-3.604,0.566-3.311,5.05-0.566,6.455
			c17.729,9.074,4.401,31.036-2.724,42.206l-8.55,13.37c-0.293-71.628-82.861-114.002-93.423-183.073
			c4.038-14.222,8.32-28.403,12.846-42.541c4.946-15.424,10.101-30.764,15.319-46.104c5.134,31.644,22.067,59.935,41.179,85.774
			c12.385,16.765,25.567,32.859,37.197,50.106c11.17,16.576,22.214,34.766,24.624,54.696l-1.048,3.982
			c-1.949,7.523-1.739,10.289-8.948,12.699L672.934,713.239z M587.013,485.424c5.805,32.587,24.037,61.569,42.981,88.519
			c23.953,34.054,48.367,67.311,56.728,108.26l-1.781,6.832c-4.191-28.459-28.123-56.687-43.757-77.538
			c-25.839-34.41-54.151-70.622-58.112-114.568L587.013,485.424z M688.316,676.126c-5.889-31.833-24.645-60.333-43.086-86.528
			c-24.246-34.452-50.002-69.156-55.681-111.487c5.658-16.514,11.274-33.048,16.765-49.645
			c12.574,69.155,84.412,112.891,98.871,182.068c-4.596,18.064-9.214,36.128-13.852,54.193c-1.006,3.814-2.033,7.621-3.081,11.421
			L688.316,676.126z M706.422,605.483c-11.882-70.161-87.115-114.19-97.153-186.196c1.048-3.248,2.096-6.517,3.102-9.787
			c15.864,67.332,86.067,109.727,98.494,178.631l-2.284,8.99L706.422,605.483z M712.436,581.865
			c-10.206-68.129-85.082-110.9-97.865-179.343c0.524-1.697,1.069-3.374,1.593-5.05c5.491-17.897,10.709-35.94,16.115-53.899
			c6.704,29.861,19.652,57.964,37.994,82.463c22.674,30.366,51.196,58.342,57.273,96.294c-0.629,2.41-1.257,4.82-1.865,7.209
			c-4.415,17.464-8.85,34.92-13.307,52.37L712.436,581.865z M638.293,323.999c5.616,30.931,19.929,59.264,37.344,85.438
			c19.28,29.003,50.295,57.043,56.959,92.459c-0.985,4.589-2.096,9.137-3.227,13.663c-5.176-28.186-24.812-52.621-42.625-74.625
			c-25.65-31.665-44.448-64.964-52.286-104.572c1.215-4.107,2.473-8.222,3.772-12.343L638.293,323.999z M733.833,495.735
			c-6.287-27.914-27.578-50.295-44.469-73.032c-23.618-31.811-43.547-66.662-48.597-106.395c3.206-9.912,6.538-19.762,10.122-29.527
			c2.976,20.286,18.379,37.407,32.021,52.558c19.9,21.847,35.05,47.586,44.49,75.589c-0.476,2.88-0.659,5.801-0.545,8.718
			c0.587,11.966,6.538,22.884,8.382,34.662C736.883,470.773,736.408,483.427,733.833,495.735z M728.195,410.297
			c-6.296-20.754-16.23-40.225-29.339-57.504c-17.729-23.345-45.182-43.882-44.679-75.044c3.157-8.215,6.524-16.36,10.101-24.435
			c-0.45,25.727,6.701,51.016,20.558,72.697c15.487,24.54,36.967,46.418,45.601,74.395c0,0.314-0.126,0.65-0.189,0.964
			C729.641,404.387,728.845,407.342,728.195,410.297z M697.515,271.608c13.161,19.573,22.8,38.35,27.809,61.611
			c4.485,20.789,9.493,42.897,5.784,64.063c-6.413-22.444-21.229-41.095-34.745-60.27c-19.887-28.228-31.057-58.677-27.872-92.731
			c2.193-4.499,4.498-8.962,6.916-13.391c4.757,14.795,13.391,27.788,22.109,40.739V271.608z M685.633,107.982
			c12.741,0.838,25.462,1.655,38.182,2.682c-12.741,44.511-41.912,80.828-62.554,121.902
			c-23.052,46.104-36.736,95.833-51.447,144.912c-30.345,101.26-72.508,199.713-88.54,304.766
			c-3.206,20.956-5.595,42.101-8.152,63.183c-0.932-0.217-1.909-0.129-2.787,0.251c0-0.356,0-0.713,0-1.069
			c2.096-29.967,3.563-59.809,8.152-89.546c4.422-28.605,10.478-56.959,16.304-85.313c11.337-54.738,25.399-107.924,45.873-160.001
			c19.028-48.409,41.158-95.497,60.501-143.781C661.68,215.048,678.885,162.615,685.633,107.982z M501.491,339.674
			c16.493-25.481,39.071-46.453,65.698-61.024c26.028-14.124,51.385-24.1,71.586-46.69c3.968-4.455,7.63-9.174,10.96-14.124
			c-7.02,20.369-14.9,40.508-23.178,60.48c-25.022,28.018-58.677,39.544-92.061,55.723c-16.765,8.11-33.719,18.169-46.649,31.686
			C491.648,356.668,496.212,347.954,501.491,339.674z M428.92,495.4c2.909-11.234,6.406-22.307,10.478-33.174
			c2.096-5.742,4.38-11.484,6.895-17.079s3.332-8.215,8.634-11.107c2.41-1.32,4.568-2.096,6.853-3.227
			c7.122-3.404,10.135-11.937,6.731-19.058c-0.621-1.299-1.435-2.497-2.414-3.553c7.586-8.11,12.092-17.98,16.136-28.48l1.069-2.745
			c17.498-21.669,43.715-34.787,69.407-45.957c23.052-10.017,49.163-20.642,67.94-38.497
			c-13.181,31.141-27.075,62.051-39.964,93.171c-26.552,12.385-49.205,33.53-68.191,55.513c-0.775,0.901,0.713,1.886,1.488,1.048
			c18.693-20.642,40.487-35.269,63.854-49.582l-0.503,1.236c-2.305,5.672-4.548,11.358-6.727,17.058
			c-26.887,13.789-47.005,39.817-64.964,63.267c-21.312,27.62-42.52,57.127-72.991,75.338c-0.922,0.566-0.23,2.096,0.733,1.551
			c28.165-15.948,48.555-39.943,68.464-64.964c19.908-25.022,39.817-48.199,65.719-66.934c-6.888,18.525-13.14,37.225-18.756,56.1
			c-25.357,8.382-40.718,33.865-56.414,53.816c-20.956,26.698-44.301,50.777-74.311,67.06c0.503-8.383,0.524-16.765,0.713-25.147
			c0.455-25.528,3.844-50.919,10.101-75.673L428.92,495.4z M420.202,650.182c2.269-0.458,3.737-2.668,3.28-4.937
			c-0.136-0.673-0.434-1.301-0.87-1.832c-3.246-4.701-7.426-8.682-12.28-11.694c4.384-10.298,6.93-21.285,7.523-32.461
			c26.614-11.652,48.199-31.791,66.829-53.627c19.468-22.696,34.913-51.175,62.387-64.629
			c-5.924,20.397-11.156,41.053-15.696,61.968l-0.126,0.629c-20.265,32.108-47.777,59.016-80.325,78.565
			c-0.289,0.139-0.411,0.486-0.272,0.775s0.486,0.411,0.775,0.272l0,0c30.547-15.527,56.857-38.255,76.658-66.222
			c-8.571,16.471-17.436,31.665-30.701,45.203c-13.265,13.538-28.291,22.737-44.008,32.419C432,647.772,413.37,665.48,404.128,688.7
			c0.021-14.145,0.293-35.709,16.053-38.518H420.202z M405.679,756.367c-1.627-19.871-2.158-39.817-1.593-59.746
			c6.287-14.669,14.187-28.249,25.986-39.691c13.181-12.804,29.842-20.684,44.993-30.785c20.231-13.338,37.193-31.066,49.624-51.867
			c-4.359,20.705-8.508,41.493-12.029,62.345c-12.951,33.258-37.449,57.546-60.626,84.621
			c-18.001,20.956-35.626,45.391-39.943,73.053c-3.127-12.464-5.278-25.153-6.434-37.952L405.679,756.367z"/>
		<path fill="#F3EBE4" d="M771.553,0.997c-25.151,21.352-47.443,45.859-66.325,72.913c-11.153,15.984-20.249,33.799-30.654,50.571
			c-0.086,0.019-0.24,0.053-0.24,0.053c-11.052,1.314-21.796-4.807-32.802-5.821c-9.535-0.701-19.122,0.031-28.44,2.17
			c-21.443,4.569-41.528,13.763-63.291,17.126c-1.448,0.277-2.406,1.663-2.155,3.115c1.056,3.416,2.032,6.958,3.043,10.33
			l0.019,0.086c-4.114-4.901-6.83-11.78-13.704-13.289c-4.284-0.928-8.176,0.826-12.099,2.192
			c-6.526,2.207-13.315,3.542-20.191,3.97c-6.786,0.401-13.588,0.456-20.38,0.165c-0.324-0.584-1.018-0.855-1.651-0.644
			c-0.541,0.155-1.021,0.422-1.57,0.543c-6.663-0.225-13.326-0.45-19.987-0.173c-1.872,0.07-3.745,0.212-5.623,0.337
			c-0.323-0.081-0.664-0.063-0.977,0.053c-23.502,1.543-46.61,6.804-68.464,15.585c-14.152,5.608-26.894,13.297-42.621,12.961
			c-12.982-0.274-25.485-2.127-38.481-0.421c-6.762,0.886-13.427,2.393-19.912,4.502c-5.52,1.788-20.636,10.861-24.989,3.155
			c-0.54-1.085-1.721-1.694-2.917-1.504c-1.513,0.24-2.545,1.66-2.305,3.173c0.339,6.288,0.694,12.482,1.074,18.707
			c-1.95-3.148-3.753-6.364-5.403-9.704c-1.425-2.886-2.918-9.926-5.451-12.048c-1.378-0.972-2.976-1.584-4.651-1.782
			c0.091-0.406,0-0.833-0.251-1.166c-0.472-0.628-1.363-0.754-1.991-0.283c-0.397,0.321-0.752,0.668-1.148,0.989
			c-1.308-0.144-2.556-0.265-3.548-0.443c-4.54-0.812-9.094-1.608-13.663-2.389c-0.194-0.082-0.405-0.115-0.615-0.099
			c-1.699-0.291-3.382-0.587-5.078-0.861l-75.622-12.245c-23.946-3.957-48.808-10.121-73.163-9.316
			c-20.088,0.676-40.115,12.015-60.221,8.112l-1.205-0.903c-0.251-0.2-0.547-0.335-0.863-0.393
			c-1.067-0.199-2.094,0.505-2.293,1.572c-0.321,0.273-0.553,0.635-0.665,1.04c-0.312,1.121,0.343,2.282,1.464,2.594
			c0.831,0.267,1.648,0.465,2.485,0.676l2.871,2.352c23.703,23.295,48.363,45.876,76.801,63.242
			c31.448,19.203,66.566,27.139,101.256,38.278c60.484,19.417,121.058,51.755,186.493,41.688c1.058-0.212,1.758-1.224,1.582-2.289
			l-0.683-6.625c11.042,3.63,22.115,0.532,32.813-3.617c14.642-5.837,29.59-10.874,44.778-15.088
			c27.86-7.345,56.351-12.312,83.847-21.068c26.706-8.511,51.246-20.985,71.688-40.412c17.212-16.381,33.137-34.528,48.754-52.769
			c16.349-14.56,31.03-30.89,43.773-48.691c3.278-4.71,6.364-9.558,9.287-14.496c0.137,0.166,0.333,0.274,0.548,0.3
			c0.462,0.056,0.882-0.273,0.938-0.734l0.422-2.824c2.59-4.487,5.063-9.02,7.49-13.597c0.227-0.154,0.371-0.405,0.39-0.679l0,0
			c7.183-13.602,13.868-27.508,21.268-40.942c11.981-13.764,24.857-26.722,38.545-38.79C780.925,3.898,775.664-2.459,771.553,0.997z
			 M718.446,74.115l0.418-3.578c1.424-1.918,2.857-3.821,4.299-5.707L718.446,74.115z M714.632,81.621
			c-1.315,2.577-2.65,5.141-4.007,7.692c0.068-1.489,0.119-2.973,0.071-4.419c0.005-0.606-0.341-1.161-0.888-1.422
			c1.265-1.931,2.482-3.834,3.861-5.737l0.923-1.281C714.539,78.172,714.547,79.842,714.632,81.621L714.632,81.621z M703.063,94.317
			c1.405-2.357,2.814-4.698,4.247-7.008c-0.285,2.919-0.414,5.851-0.388,8.784c-1.354,2.454-2.747,4.893-4.179,7.317
			c0.33-2.771,0.485-5.561,0.465-8.351c0-0.255-0.055-0.506-0.162-0.737L703.063,94.317z M699.683,100.039
			c-0.184,2.844-0.221,5.782-0.119,8.617c-1.263,2.021-2.513,4.021-3.873,6.009c0.281-2.973,0.623-5.996,0.756-8.991
			L699.683,100.039z M693.399,111.107c-0.015,2.304,0.004,4.6,0.024,6.896c-1.158,1.656-2.338,3.294-3.539,4.912
			c0.157-2.119,0.29-4.239,0.399-6.36L693.399,111.107z M679.005,135.567l0.715-1.164l-0.384,1.522L679.005,135.567z
			 M683.965,127.468c1.245-2.131,2.476-4.246,3.691-6.347l0.042,4.609c-1.866,2.411-3.742,4.782-5.626,7.113
			c0.634-1.775,1.265-3.567,1.861-5.351L683.965,127.468z M634.782,182.128c-9.696,11.081-19.574,21.987-29.914,32.346
			c-18.423,18.067-40.151,30.498-64.091,39.246c-12.732,2.243-25.846,0.471-37.526-5.071c-7.417-3.492-14.597-8.438-22.075-11.881
			c14.019-3.704,27.943-7.596,41.771-11.678c37.198-10.978,78.813-21.076,111.886-42.974L634.782,182.128z M396.899,255.308
			c20.232-3.458,40.341-7.715,60.35-12.598c11.848,1.369,23.336,4.94,33.873,10.528c7.62,3.843,15.303,7.564,23.364,8.668
			c-20.656,5.618-41.691,9.917-62.354,15.5c-1.223,0.323-2.406,0.745-3.641,1.016c-19.514-1.211-33.785-17.323-51.54-23.126
			L396.899,255.308z M442.104,280.275c-1.286,0.283-2.521,0.716-3.726,1.035c-19.715-2.371-36.49-19.083-55.368-23.777
			c3.328-0.504,6.657-1.032,9.986-1.584c17.41,5.376,31.272,21.02,49.152,24.28L442.104,280.275z M477.716,244.413
			c-4.454-1.485-9.038-2.547-13.691-3.173c5.056-1.255,10.1-2.537,15.132-3.847c13.109,5.512,25.65,16.127,39.148,18.75
			c3.919,0.754,7.895,1.172,11.885,1.252c-2.471,0.777-4.96,1.557-7.442,2.282c-16.377,1.209-29.763-10.065-44.981-15.276
			L477.716,244.413z M368.127,298.33c0.614,5.904,1.83,7.02-4.112,8.524c-0.137,0.03-0.291,0.064-0.429,0.094
			c-17.714-2.343-32.998-17.424-45.596-29.033c-6.062-5.587-12.082-10.734-19.433-12.947c26.584-0.547,53.107-2.774,79.41-6.668
			c19.146,3.053,35.366,20.103,54.668,24.847c-5.034,1.627-10.045,3.358-15.015,5.277c-14.824,5.738-30.879,14.873-46.832,7.704
			c-0.311-0.108-0.644-0.137-0.969-0.084c-1.081,0.175-1.816,1.194-1.64,2.276L368.127,298.33z M352.576,307.139
			c-22.955-2.719-35.272-16.978-51.637-31.336c-4.956-4.454-10.607-8.069-16.729-10.701c3.313,0.027,6.631,0.023,9.954-0.013
			c15.057,2.927,25.467,18.073,37.011,27.343c7.611,6.091,15.863,12.563,25.238,15.481c-0.96,0.049-1.841,0.045-2.757,0.049
			c-0.139-0.463-0.546-0.794-1.028-0.834L352.576,307.139z M33.025,186.248c45.275,31.712,96.188,54.488,150.006,67.104
			c30.994,7.124,62.644,11.01,94.44,11.596c14.891,3.809,25.545,17.121,37.098,27.576c7.9,7.4,17.53,12.699,28.009,15.411
			c-5.738-0.105-11.458-0.537-17.155-1.19c-16.275-2.05-32.332-5.565-47.975-10.502c-30.27-9.181-59.411-21.648-89.479-31.467
			c-34.79-11.351-70.088-19.284-101.745-38.458C67.191,214.792,49.833,200.904,33.025,186.248z M163.832,171.879
			c-7.193,3.989-12.526,12.026-16.933,18.548c-4.629,6.822-7.768,14.701-12.684,21.281c-4.478,6.083-11.299,10.013-18.808,10.837
			c-5.861-2.354-11.677-4.832-17.449-7.434c7.619-0.314,14.947-3.012,20.95-7.713c12.908-10.205,16.779-29.963,31.226-37.828
			L163.832,171.879z M145.455,168.891c-6.234,4.425-10.707,11.141-14.792,17.988c-4.446,7.411-8.63,15.034-15.831,20.211
			c-6.237,4.321-13.725,6.465-21.304,6.102c-28.367-13.117-55.348-29.043-80.539-47.54c14.211,0.633,27.954-4.957,42.284-6.974
			c17.99-2.534,36.552,0.558,54.658,3.947c-4.482,2.745-8.586,6.063-12.208,9.872c-4.693,4.895-8.719,13.975-16.441,14.163
			c-0.004-0.017,0.019,0.086,0.019,0.086c5.041,0.042,8.413-3.179,11.77-6.63c6.078-6.276,13.005-11.67,20.579-16.025
			c0.286-0.173,0.512-0.43,0.647-0.735c4.689,0.893,9.413,1.778,14.041,2.558L145.455,168.891z M203.946,178.664l6.591,1.122
			c-17.214,16.453-18.51,51.281-39.273,61.235c-2.592-0.67-5.2-1.337-7.786-2.063c-14.878-4.183-29.479-9.073-43.806-14.672
			c23.235-5.412,26.577-45.487,50.904-51.247L203.946,178.664z M276.406,186.499c15.763-5.064,30.529-8.776,47.295-7.806
			c2.734,0.172,5.517,0.405,8.227,0.636c-9.931,6.658-14.491,18.946-18.268,30.056c-5.985,17.58-12.628,36.095-27.841,46.035
			c-37.61,0.029-75.085-4.499-111.605-13.484c5.969-3.589,10.927-8.636,14.407-14.668c9.394-15.562,12.035-34.869,26.277-46.607
			c2.139,0.357,4.277,0.707,6.414,1.053c-11.589,9.502-17.616,24.108-22.732,37.957c-0.071,0.323,0.08,0.653,0.372,0.809
			c0.359,0.192,0.806,0.057,0.998-0.302c6.479-14.436,12.923-28.127,25.466-37.947c1.686,0.15,3.651,0.258,5.617,0.455
			c-7.895,8.095-13.786,17.927-17.199,28.707c-0.075,0.2,0.026,0.423,0.226,0.499c0.2,0.075,0.423-0.026,0.498-0.226
			c4.627-10.777,11.382-20.508,19.862-28.61c2.599,0.235,5.062,1.269,7.049,2.962c3.303,3.498,5.362,11.15,7.785,15.309
			c2.424,4.158,5.167,8.138,8.037,12.037c1.919,2.598,5.334,0.23,5.15-2.408c-0.536-7.754-1.055-15.512-1.611-23.279
			c4.647,1.765,10.36,0.527,15.596-1.163L276.406,186.499z M338.726,179.921c3.307,0.244,6.59,0.385,9.829,0.32
			c-23.409,18.929-26.469,53.749-47.367,75.109c-3.839,0.089-7.68,0.136-11.525,0.143c7.576-5.77,13.662-13.27,17.748-21.873
			c8.787-17.261,11.337-45.157,31.35-53.617L338.726,179.921z M447.631,155.196c5.663-0.4,11.347-0.624,16.99-0.625
			c-21.323,20.574-21.604,61.001-38.682,85.188c-29.257,6.307-58.866,10.851-88.668,13.609c-11.435,1.015-22.875,1.678-34.321,1.989
			c22.143-21.994,25.735-56.84,52.194-75.469c2.984-0.379,5.927-1.026,8.795-1.933c3.447-1.081,6.89-2.341,10.198-3.643
			c-15.157,15.942-24.951,36.223-28.013,58.006c-0.079,0.539,0.83,0.752,0.961,0.202c5.461-23.971,16.994-45.179,34.801-61.385
			c2.535-1.06,5.087-2.124,7.646-3.154l-1.749,2.02c-8.725,10.449-16.691,21.509-23.837,33.096c-0.08,0.178-0.043,0.387,0.094,0.527
			c0.183,0.187,0.483,0.189,0.67,0.006c6.016-8.115,12.259-16.047,18.728-23.795c3.893-5.037,8.107-9.817,12.617-14.311
			c2.721-1.03,5.509-2.002,8.361-2.844c9.178-2.687,18.55-4.663,28.032-5.909c-7.989,8.873-12.843,20.723-16.327,32.02
			c-0.069,0.184,0.025,0.389,0.208,0.457c0.184,0.069,0.389-0.025,0.457-0.208c5.584-12.046,10.556-24.012,19.756-32.774
			c1.846-0.214,3.691-0.404,5.536-0.57c-14.279,15.521-21.968,35.982-21.444,57.066c-0.007,0.284,0.199,0.53,0.48,0.571
			c0.307,0.045,0.592-0.168,0.637-0.475c1.132-21.755,10.38-42.295,25.918-57.564L447.631,155.196z M492.621,154.403
			c4.194,0.031,8.395,0.006,12.629-0.188c-19.139,19.878-27.462,47.839-32.943,74.582c-14.726,3.812-29.53,7.352-44.413,10.533
			c19.07-26.081,18.845-64.726,44.083-84.901c6.82-0.043,13.714,0.005,20.701,0.069L492.621,154.403z M532.188,148.314
			c6.319-0.526,8.39,2.847,12.587,8.125c2.407,3.454,5.953,5.951,10.015,7.055c2.529,0.63,5.732-1.152,5.05-4.255
			c-1.325-5.626-2.998-11.165-5.01-16.583c12-2.152,23.7-5.586,35.481-8.732c-7.306,6.746-11.601,17.377-14.102,26.769
			c-3.194,11.881-4.874,24.435-11.837,34.951c-2.537,3.622-5.709,6.754-9.362,9.246c-18.358,5.85-36.953,11.194-55.574,16.419
			c-8.475,2.378-16.957,4.673-25.445,6.886c7.897-27.364,15.518-54.757,36.736-74.66c2.434-0.361,4.84-0.89,7.201-1.582
			c-10.596,11.092-18.905,24.161-24.455,38.461c-0.121,0.329,0.048,0.695,0.377,0.816c0.329,0.121,0.695-0.048,0.816-0.377
			c7.258-14.947,16.914-28.604,28.587-40.43c1.551-0.467,3.115-0.954,4.727-1.308c-5.033,6.066-9.629,12.481-13.753,19.197
			c-0.103,0.227-0.059,0.494,0.112,0.675c0.233,0.247,0.622,0.258,0.868,0.026c5.195-7.255,10.888-14.139,17.039-20.602
			L532.188,148.314z M651.322,129.16c6.182,1.553,11.874,3.411,17.948,3.981c-5.567,8.505-11.923,16.466-18.983,23.779
			c-18.648,18.925-43.145,30.204-67.824,39.024c-6.756,2.407-13.549,4.727-20.379,6.959c0.429-0.418,0.883-0.805,1.309-1.24
			c4.659-5.332,8.111-11.609,10.119-18.399c6.446-19.245,7.378-43.874,28.555-51.943c-14.562,16.661-16.651,47.475-25.797,65.229
			c-0.035,0.101-0.001,0.213,0.084,0.277c0.108,0.082,0.262,0.06,0.344-0.048c11.64-21.699,14.281-54.251,35.778-67.818
			c0.686-0.151,1.372-0.301,2.057-0.452c12.296-1.947,24.701-2.337,36.845,0.745L651.322,129.16z"/>
	</g>
</g>
<g>
</g>
<g>
</g>
<g>
</g>
<g>
</g>
<g>
</g>
<g>
</g>
</svg>
