<?xml version="1.0" encoding="utf-8"?>
<!-- Generator: Adobe Illustrator 24.0.1, SVG Export Plug-In . SVG Version: 6.00 Build 0)  -->
<!DOCTYPE svg PUBLIC "-//W3C//DTD SVG 1.1//EN" "http://www.w3.org/Graphics/SVG/1.1/DTD/svg11.dtd" [
	<!ENTITY ns_extend "http://ns.adobe.com/Extensibility/1.0/">
	<!ENTITY ns_ai "http://ns.adobe.com/AdobeIllustrator/10.0/">
	<!ENTITY ns_graphs "http://ns.adobe.com/Graphs/1.0/">
	<!ENTITY ns_vars "http://ns.adobe.com/Variables/1.0/">
	<!ENTITY ns_imrep "http://ns.adobe.com/ImageReplacement/1.0/">
	<!ENTITY ns_sfw "http://ns.adobe.com/SaveForWeb/1.0/">
	<!ENTITY ns_custom "http://ns.adobe.com/GenericCustomNamespace/1.0/">
	<!ENTITY ns_adobe_xpath "http://ns.adobe.com/XPath/1.0/">
]>
<svg version="1.1" id="Calque_1" xmlns:x="&ns_extend;" xmlns:i="&ns_ai;" xmlns:graph="&ns_graphs;"
	 xmlns="http://www.w3.org/2000/svg" xmlns:xlink="http://www.w3.org/1999/xlink" x="0px" y="0px" viewBox="0 0 37.121 61.494"
	 enable-background="new 0 0 37.121 61.494" xml:space="preserve">
<metadata>
	<sfw  xmlns="&ns_sfw;">
		<slices></slices>
		<sliceSourceBounds  bottomLeftOrigin="true" height="61.494" width="37.121" x="588.439" y="-510.747"></sliceSourceBounds>
	</sfw>
</metadata>
<g>
	<g>
		<path fill="#FFFFFF" d="M31.372,3.75H5.749c-1.104,0-2,0.895-2,2v44.995c0,1.104,0.895,2,2,2h25.622c1.104,0,2-0.895,2-2V5.749
			C33.372,4.645,32.476,3.75,31.372,3.75z M31.872,50.745c0,0.276-0.224,0.5-0.5,0.5H5.749c-0.276,0-0.5-0.224-0.5-0.5V5.749
			c0-0.276,0.224-0.5,0.5-0.5h25.622c0.276,0,0.5,0.224,0.5,0.5V50.745z"/>
		<path fill="#FFFFFF" d="M32.622,0H4.5C2.015,0,0,2.015,0,4.5v52.495c0,2.485,2.015,4.5,4.5,4.5l0,0h28.122
			c2.485,0,4.5-2.015,4.5-4.5l0,0V4.5C37.121,2.015,35.107,0,32.622,0z M35.621,56.994c0,1.657-1.343,3-3,3H4.5
			c-1.657,0-3-1.343-3-3V4.5c0-1.657,1.343-3,3-3h28.122c1.657,0,3,1.343,3,3V56.994z"/>
		<path fill="#FFFFFF" d="M18.936,53.745c-1.484,0-2.687,1.203-2.687,2.687c0,1.484,1.203,2.687,2.687,2.687
			s2.687-1.203,2.687-2.687C21.621,54.948,20.419,53.746,18.936,53.745z M18.936,57.619c-0.656,0-1.187-0.532-1.187-1.187
			c0-0.656,0.532-1.187,1.187-1.187s1.187,0.532,1.187,1.187C20.122,57.087,19.591,57.618,18.936,57.619z"/>
	</g>
</g>
<g>
</g>
<g>
</g>
<g>
</g>
<g>
</g>
<g>
</g>
<g>
</g>
</svg>
