<?xml version="1.0" encoding="utf-8"?>
<!-- Generator: Adobe Illustrator 24.0.1, SVG Export Plug-In . SVG Version: 6.00 Build 0)  -->
<!DOCTYPE svg PUBLIC "-//W3C//DTD SVG 1.1//EN" "http://www.w3.org/Graphics/SVG/1.1/DTD/svg11.dtd" [
	<!ENTITY ns_extend "http://ns.adobe.com/Extensibility/1.0/">
	<!ENTITY ns_ai "http://ns.adobe.com/AdobeIllustrator/10.0/">
	<!ENTITY ns_graphs "http://ns.adobe.com/Graphs/1.0/">
	<!ENTITY ns_vars "http://ns.adobe.com/Variables/1.0/">
	<!ENTITY ns_imrep "http://ns.adobe.com/ImageReplacement/1.0/">
	<!ENTITY ns_sfw "http://ns.adobe.com/SaveForWeb/1.0/">
	<!ENTITY ns_custom "http://ns.adobe.com/GenericCustomNamespace/1.0/">
	<!ENTITY ns_adobe_xpath "http://ns.adobe.com/XPath/1.0/">
]>
<svg version="1.1" id="Calque_1" xmlns:x="&ns_extend;" xmlns:i="&ns_ai;" xmlns:graph="&ns_graphs;"
	 xmlns="http://www.w3.org/2000/svg" xmlns:xlink="http://www.w3.org/1999/xlink" x="0px" y="0px" viewBox="0 0 57.7 82.7"
	 style="enable-background:new 0 0 57.7 82.7;" xml:space="preserve">
<style type="text/css">
	.st0{fill:#5A6F7A;}
</style>
<metadata>
	<sfw  xmlns="&ns_sfw;">
		<slices></slices>
		<sliceSourceBounds  bottomLeftOrigin="true" height="82.7" width="57.7" x="23.1" y="0.1"></sliceSourceBounds>
	</sfw>
</metadata>
<g>
	<path class="st0" d="M9.4,82.7c-2.1,0-3.8-1.7-3.8-3.8v-4.1l0,0l0-0.1c0-0.1,0-0.2,0.1-0.3l0-0.1l5.4-10.8c1.1-2.2,3.4-3.6,5.9-3.7
		h2.2l0.6-3.5l-0.3-0.1c-13.4-4.5-21.5-18-19.2-32S14.7,0,28.8,0S55,10.2,57.3,24.2c2.3,14-5.8,27.5-19.2,32l-0.3,0.1l0.6,3.5h2.2
		c2.5,0,4.8,1.4,5.9,3.7L52,74.2l0.1,0.2c0,0.1,0.1,0.2,0.1,0.3l0,0l0,0v4.1c0,2.1-1.7,3.8-3.8,3.8H9.4z M7.7,78.8
		c0,0.9,0.8,1.7,1.7,1.7h38.9c0.9,0,1.7-0.8,1.7-1.7v-3.1H7.7V78.8z M17,61.9c-1.7,0-3.2,1-4,2.5l-4.6,9.3h41l-4.6-9.3
		c-0.8-1.5-2.3-2.5-4-2.5h-1.9l0.2,1c0.2,1.1-0.1,2.3-0.8,3.2s-1.8,1.4-3,1.4H22.5c-1.1,0-2.2-0.5-3-1.4c-0.7-0.9-1-2-0.8-3.2l0.2-1
		L17,61.9L17,61.9z M20.8,63.3c-0.1,0.5,0,1,0.4,1.4c0.3,0.4,0.8,0.6,1.3,0.6h12.8c0.5,0,1-0.2,1.3-0.6c0.3-0.4,0.5-0.9,0.4-1.4
		l-1.2-6.4l-0.3,0.1c-2.1,0.5-4.4,0.8-6.6,0.8s-4.4-0.3-6.6-0.8l-0.3-0.1L20.8,63.3z M28.8,2.2c-14.7,0-26.7,12-26.7,26.7
		c0,14.7,12,26.7,26.7,26.7s26.7-12,26.7-26.7C55.5,14.1,43.6,2.2,28.8,2.2L28.8,2.2z"/>
	<path class="st0" d="M28.7,49.4c-0.6,0-1.1-0.5-1.1-1.1c0-0.6,0.5-1.1,1.1-1.1l0.3,0c2.9,0,5.7-0.7,8.3-2.1l0.2-0.1l0-0.2
		c-0.1-0.7-0.2-1.5-0.2-2.2l0-0.6l-0.5,0.3c-1.3,0.8-2.7,1.4-4.1,1.7c-0.4,0.1-0.9,0.2-1.4,0.3c-0.1,0-0.1,0-0.2,0
		c-0.6,0-1-0.4-1.1-1c0-0.6,0.4-1.1,0.9-1.1c0.4-0.1,0.8-0.1,1.2-0.2c1.8-0.4,3.4-1.2,4.8-2.3l0.1-0.1l0-0.2
		c-0.2-1.8-1.1-3.5-2.6-4.5l-0.2-0.2l-0.2,0.2c-1.5,1.3-3.3,2-5.3,2c0,0-0.1,0-0.1,0c0,0-0.1,0-0.1,0h-0.2l-0.1,0.2
		c-2.1,8.1-4.9,12.3-8.3,12.3h-0.3c-1.3-0.1-2.7-0.5-3.9-1.2c-2.4-1.3-4.5-3.2-6.1-5.5c-2.9-4-4-8.5-3.1-12C7,29.8,7.5,29,8.2,28.5
		l0.1-0.1l0-0.2c0-1.3,0.2-2.6,0.5-3.9c0.5-2.1,1.3-4.2,2.4-6.1c0.2-0.3,0.5-0.5,0.9-0.5c0.4,0,0.7,0.2,0.9,0.5
		c0.2,0.3,0.2,0.7,0,1.1c-1,1.7-1.8,3.5-2.2,5.5c-0.2,1-0.4,2.1-0.4,3.1l0,0.2l0.2,0.1c0.7,0.3,1.4,0.6,2,0.9l0.5,0.3v-0.7
		c0-1.4,0.2-2.9,0.6-4.3c0.1-0.5,0.3-1,0.5-1.5c0.2-0.4,0.6-0.7,1-0.7c0.1,0,0.3,0,0.4,0.1c0.5,0.2,0.8,0.8,0.6,1.4
		c-0.2,0.4-0.3,0.8-0.4,1.3c-0.3,1.2-0.5,2.4-0.5,3.7c0,0.6,0,1.1,0.1,1.7l0,0.2l0.2,0.1c0.9,0.4,1.9,0.7,2.8,0.7
		c0.8,0,1.6-0.2,2.4-0.5l0.3-0.1L21,30.6c-0.5-2.1-0.1-4.2,1-5.9l0.1-0.2L22,24.2c-6.1-6.1-8.2-10.5-6.2-13.4
		c1.9-2.8,6-4.8,10.7-5.3c0.7-0.1,1.4-0.1,2-0.1c4.1,0,7.7,1.3,9.9,3.5c0.7,0.6,1.1,1.4,1.2,2.3l0,0.2l0.1,0.1
		c1.1,0.7,2.1,1.5,3.1,2.3c1.6,1.5,2.9,3.2,4,5.1c0.3,0.5,0.1,1.2-0.4,1.5c-0.2,0.1-0.3,0.1-0.5,0.1c-0.4,0-0.7-0.2-0.9-0.5
		c-0.9-1.7-2.2-3.2-3.6-4.6c-0.8-0.7-1.6-1.4-2.5-1.9l-0.2-0.1l-0.2,0.1c-0.6,0.5-1.2,0.9-1.8,1.3L36.2,15l0.5,0.3
		c1.3,0.7,2.5,1.6,3.5,2.7c0.4,0.4,0.7,0.8,1,1.2c0.4,0.5,0.3,1.1-0.2,1.5c-0.2,0.1-0.4,0.2-0.7,0.2c-0.3,0-0.6-0.1-0.8-0.4
		c-0.3-0.3-0.6-0.7-0.9-1c-1.2-1.3-2.7-2.3-4.3-3l-0.2-0.1L34,16.5c-1.5,1-2.5,2.6-2.7,4.4l0,0.3l0.3,0.1c2,0.7,3.6,2.1,4.5,3.9
		l0.1,0.2l0.3-0.1c3.5-1,6.5-1.5,8.8-1.5c3.2,0,5.1,0.9,6,2.7c1.5,3,1.2,7.6-0.8,11.9c-2,4.5-5.3,7.7-8.9,8.6
		c-0.4,0.1-0.9,0.2-1.4,0.2c-0.5,0-0.9-0.1-1.3-0.4l-0.2-0.1L38.4,47c-2.9,1.6-6.1,2.4-9.4,2.4L28.7,49.4z M9.2,30.4
		c-0.2,0.3-0.3,0.6-0.3,0.9c-0.8,2.9,0.2,6.8,2.7,10.2c2.4,3.3,5.7,5.6,8.3,5.7l0.1,0c2.1,0,4.4-3.9,6.2-10.5l0.1-0.3L26,36.3
		c-1.6-0.6-3-1.8-3.9-3.2v-0.4l-0.5,0.2c-1,0.4-2,0.6-3,0.6c-2.6,0-4.8-1.3-6.5-2.2c-0.7-0.5-1.6-0.9-2.5-1.1l-0.2-0.1L9.2,30.4z
		 M45,26c-2.1,0-4.8,0.4-8,1.3l-0.3,0.1l0,0.3c0.3,1.7-0.1,3.5-0.9,5L35.7,33l0.2,0.2c3.4,2.5,3.5,6.5,3.5,9.1
		c-0.1,0.9,0,1.8,0.3,2.7l0.1,0.2h0.3c0.3,0,0.6-0.1,0.9-0.1c2.9-0.8,5.7-3.6,7.5-7.4c1.7-3.7,2-7.7,0.8-10.1
		C48.9,26.9,47.9,26,45,26z M28.8,23c-3.2,0-5.9,2.6-5.9,5.9s2.6,5.9,5.9,5.9s5.9-2.6,5.9-5.9C34.7,25.6,32.1,23,28.8,23z M17.5,12
		c-1.6,2.5,3,7.7,5.9,10.6l0.2,0.2l0.2-0.2c1.4-1.1,3.2-1.8,5-1.8l0.3,0l0-0.3c0.5-4.1,3.9-6.1,6.1-7.4c0.8-0.4,1.5-0.9,2.2-1.6
		l0.2-0.2l-0.1-0.2c-0.2-0.3-0.3-0.5-0.6-0.7c-1.8-1.8-4.9-2.8-8.3-2.8c-0.6,0-1.2,0-1.8,0.1c-3.6,0.4-6.9,1.7-8.6,3.6v-0.1L17.5,12
		z"/>
	<path class="st0" d="M23.3,71.6c-0.6,0-1.1-0.5-1.1-1.1c0-0.6,0.5-1.1,1.1-1.1c0.6,0,1.1,0.5,1.1,1.1
		C24.4,71.1,23.9,71.6,23.3,71.6z"/>
	<path class="st0" d="M28.8,71.6c-0.6,0-1.1-0.5-1.1-1.1c0-0.6,0.5-1.1,1.1-1.1s1.1,0.5,1.1,1.1C29.9,71.1,29.4,71.6,28.8,71.6z"/>
	<path class="st0" d="M34.4,71.6c-0.6,0-1.1-0.5-1.1-1.1c0-0.6,0.5-1.1,1.1-1.1c0.6,0,1.1,0.5,1.1,1.1C35.5,71.1,35,71.6,34.4,71.6z
		"/>
</g>
</svg>
