<?xml version="1.0" encoding="utf-8"?>
<!-- Generator: Adobe Illustrator 24.0.1, SVG Export Plug-In . SVG Version: 6.00 Build 0)  -->
<!DOCTYPE svg PUBLIC "-//W3C//DTD SVG 1.1//EN" "http://www.w3.org/Graphics/SVG/1.1/DTD/svg11.dtd" [
	<!ENTITY ns_extend "http://ns.adobe.com/Extensibility/1.0/">
	<!ENTITY ns_ai "http://ns.adobe.com/AdobeIllustrator/10.0/">
	<!ENTITY ns_graphs "http://ns.adobe.com/Graphs/1.0/">
	<!ENTITY ns_vars "http://ns.adobe.com/Variables/1.0/">
	<!ENTITY ns_imrep "http://ns.adobe.com/ImageReplacement/1.0/">
	<!ENTITY ns_sfw "http://ns.adobe.com/SaveForWeb/1.0/">
	<!ENTITY ns_custom "http://ns.adobe.com/GenericCustomNamespace/1.0/">
	<!ENTITY ns_adobe_xpath "http://ns.adobe.com/XPath/1.0/">
]>
<svg version="1.1" id="Calque_1" xmlns:x="&ns_extend;" xmlns:i="&ns_ai;" xmlns:graph="&ns_graphs;"
	 xmlns="http://www.w3.org/2000/svg" xmlns:xlink="http://www.w3.org/1999/xlink" x="0px" y="0px" viewBox="0 0 115.486 80.57"
	 enable-background="new 0 0 115.486 80.57" xml:space="preserve">
<metadata>
	<sfw  xmlns="&ns_sfw;">
		<slices></slices>
		<sliceSourceBounds  bottomLeftOrigin="true" height="80.57" width="115.486" x="0" y="0"></sliceSourceBounds>
	</sfw>
</metadata>
<g>
	<path fill="#596F7A" d="M12.084,48.34C5.429,48.333,0.008,42.911,0,36.255V12.084C0.008,5.429,5.429,0.008,12.085,0h91.317
		c6.655,0.008,12.076,5.429,12.084,12.085v24.171c-0.008,6.655-5.429,12.076-12.085,12.084h0.001H12.084z M12.082,2.681
		c-5.177,0.006-9.395,4.224-9.401,9.402v24.174c0.006,5.179,4.224,9.397,9.401,9.403h91.32c5.179-0.006,9.397-4.223,9.403-9.402
		V12.084c-0.006-5.179-4.223-9.397-9.401-9.403C103.404,2.681,12.082,2.681,12.082,2.681z"/>
	<path fill="#596F7A" d="M12.621,24.168c-0.74,0-1.341-0.601-1.341-1.341s0.601-1.341,1.341-1.341h90.244
		c0.739,0,1.34,0.601,1.34,1.341s-0.601,1.341-1.34,1.341H12.621z"/>
	<path fill="#596F7A" d="M12.621,13.693c-0.74,0-1.341-0.601-1.341-1.341c0-0.739,0.601-1.341,1.341-1.341h90.244
		c0.739,0,1.34,0.601,1.34,1.341c0,0.739-0.601,1.341-1.34,1.341H12.621z"/>
	<path fill="#596F7A" d="M81.378,40.283c-2.961,0-5.369-2.409-5.369-5.369s2.408-5.369,5.369-5.369
		c2.957,0.004,5.366,2.413,5.369,5.371C86.747,37.874,84.339,40.283,81.378,40.283z M81.378,32.225
		c-1.483,0-2.688,1.206-2.688,2.688s1.206,2.688,2.688,2.688c1.482-0.002,2.687-1.207,2.688-2.687
		C84.066,33.431,82.86,32.225,81.378,32.225z"/>
	<path fill="#596F7A" d="M98.836,40.283c-2.961,0-5.369-2.409-5.369-5.369s2.408-5.369,5.369-5.369
		c2.957,0.004,5.366,2.413,5.369,5.371C104.205,37.874,101.797,40.283,98.836,40.283z M98.836,32.225
		c-1.483,0-2.688,1.206-2.688,2.688s1.206,2.688,2.688,2.688c1.482-0.002,2.687-1.207,2.688-2.687
		C101.524,33.431,100.318,32.225,98.836,32.225z"/>
	<path fill="#596F7A" d="M59.086,80.57c-0.74,0-1.341-0.601-1.341-1.341V57.743c0-0.739,0.601-1.341,1.341-1.341
		c0.739,0,1.34,0.601,1.34,1.341V79.23C60.426,79.969,59.825,80.57,59.086,80.57z"/>
	<path fill="#596F7A" d="M76.543,72.513c-0.739,0-1.34-0.601-1.34-1.341V57.743c0-0.739,0.601-1.341,1.34-1.341
		c0.74,0,1.341,0.601,1.341,1.341v13.429C77.884,71.911,77.283,72.513,76.543,72.513z"/>
	<path fill="#596F7A" d="M94.001,67.141c-0.739,0-1.34-0.601-1.34-1.341v-8.057c0-0.739,0.601-1.341,1.34-1.341
		c0.74,0,1.341,0.601,1.341,1.341V65.8C95.342,66.539,94.741,67.141,94.001,67.141z"/>
	<path fill="#596F7A" d="M41.628,72.513c-0.74,0-1.341-0.601-1.341-1.341V57.743c0-0.739,0.601-1.341,1.341-1.341
		c0.739,0,1.34,0.601,1.34,1.341v13.429C42.968,71.911,42.367,72.513,41.628,72.513z"/>
	<path fill="#596F7A" d="M24.17,67.141c-0.74,0-1.341-0.601-1.341-1.341v-8.057c0-0.739,0.601-1.341,1.341-1.341
		c0.739,0,1.34,0.601,1.34,1.341V65.8C25.511,66.539,24.909,67.141,24.17,67.141z"/>
</g>
</svg>
