<?xml version="1.0" encoding="utf-8"?>
<!-- Generator: Adobe Illustrator 24.0.1, SVG Export Plug-In . SVG Version: 6.00 Build 0)  -->
<!DOCTYPE svg PUBLIC "-//W3C//DTD SVG 1.1//EN" "http://www.w3.org/Graphics/SVG/1.1/DTD/svg11.dtd" [
	<!ENTITY ns_extend "http://ns.adobe.com/Extensibility/1.0/">
	<!ENTITY ns_ai "http://ns.adobe.com/AdobeIllustrator/10.0/">
	<!ENTITY ns_graphs "http://ns.adobe.com/Graphs/1.0/">
	<!ENTITY ns_vars "http://ns.adobe.com/Variables/1.0/">
	<!ENTITY ns_imrep "http://ns.adobe.com/ImageReplacement/1.0/">
	<!ENTITY ns_sfw "http://ns.adobe.com/SaveForWeb/1.0/">
	<!ENTITY ns_custom "http://ns.adobe.com/GenericCustomNamespace/1.0/">
	<!ENTITY ns_adobe_xpath "http://ns.adobe.com/XPath/1.0/">
]>
<svg version="1.1" id="Calque_1" xmlns:x="&ns_extend;" xmlns:i="&ns_ai;" xmlns:graph="&ns_graphs;"
	 xmlns="http://www.w3.org/2000/svg" xmlns:xlink="http://www.w3.org/1999/xlink" x="0px" y="0px" viewBox="0 0 38.851 36.614"
	 enable-background="new 0 0 38.851 36.614" xml:space="preserve">
<metadata>
	<sfw  xmlns="&ns_sfw;">
		<slices></slices>
		<sliceSourceBounds  bottomLeftOrigin="true" height="36.614" width="38.851" x="587.544" y="-498.307"></sliceSourceBounds>
	</sfw>
</metadata>
<g>
	<g>
		<path fill="#FFFFFF" d="M36.173,2.553C34.544,0.919,32.331,0,30.023,0c-2.308,0-4.521,0.919-6.15,2.553
			c-0.051,0.051-0.098,0.104-0.148,0.156c-1.983-0.752-4.086-1.135-6.206-1.133C7.859,1.576,0,9.435,0,19.095
			c0,9.66,7.859,17.519,17.519,17.519c9.66,0,17.519-7.859,17.519-17.519c0-0.696-0.041-1.391-0.122-2.082l-0.034-0.285l1.423-1.516
			c0.877-0.915,1.559-1.998,2.004-3.184c0.425-1.145,0.603-2.366,0.525-3.584C38.687,6.223,37.742,4.131,36.173,2.553z
			 M13.734,3.572c-2.067,1.682-3.699,3.906-4.816,6.529C7.915,9.467,6.987,8.721,6.152,7.878C8.231,5.768,10.856,4.277,13.734,3.572
			L13.734,3.572z M5.122,9.028c0.974,0.973,2.062,1.826,3.24,2.54c-0.717,2.183-1.108,4.459-1.16,6.756H1.56
			C1.722,14.924,2.97,11.665,5.122,9.028z M5.122,29.162c-2.152-2.638-3.4-5.896-3.561-9.296h5.641
			c0.052,2.297,0.443,4.573,1.16,6.756C7.184,27.336,6.096,28.188,5.122,29.162z M6.152,30.311c0.835-0.843,1.762-1.588,2.766-2.222
			c1.117,2.623,2.748,4.846,4.815,6.528C10.856,33.913,8.231,32.422,6.152,30.311z M16.748,34.797
			c-2.898-1.593-5.116-4.193-6.477-7.472c2.017-1.01,4.223-1.585,6.477-1.689V34.797z M16.748,24.094
			c-2.434,0.102-4.821,0.706-7.01,1.774c-0.609-1.945-0.944-3.965-0.994-6.003h8.004V24.094z M16.748,18.324H8.744
			c0.05-2.037,0.385-4.058,0.994-6.003c2.189,1.069,4.576,1.673,7.01,1.774V18.324z M16.748,12.553
			c-2.253-0.104-4.46-0.679-6.477-1.689c1.361-3.279,3.579-5.878,6.477-7.472V12.553z M22.714,3.982
			c-0.118,0.18-0.233,0.363-0.338,0.551c-0.346-0.34-0.705-0.661-1.077-0.966C21.776,3.683,22.248,3.821,22.714,3.982z M18.29,3.392
			c1.269,0.699,2.419,1.594,3.408,2.652c-0.267,0.775-0.43,1.582-0.485,2.4c-0.078,1.213,0.099,2.428,0.52,3.568
			c-1.124,0.305-2.279,0.487-3.443,0.541L18.29,3.392z M18.29,14.097c1.391-0.059,2.771-0.283,4.109-0.669
			c0.379,0.644,0.83,1.243,1.343,1.786l2.534,2.699c0.007,0.137,0.013,0.274,0.017,0.412H18.29V14.097z M18.29,19.866h8.004
			c-0.051,2.047-0.388,4.078-1.003,6.031c-2.182-1.083-4.567-1.697-7.001-1.803V19.866z M18.29,25.637
			c2.252,0.107,4.456,0.692,6.465,1.716c-1.362,3.267-3.575,5.856-6.465,7.445V25.637z M21.304,34.618
			c2.057-1.674,3.683-3.885,4.799-6.491c0.994,0.637,1.914,1.384,2.741,2.227C26.771,32.442,24.162,33.918,21.304,34.618
			L21.304,34.618z M29.878,29.208c-0.966-0.975-2.045-1.83-3.214-2.55c0.728-2.155,1.133-4.536,1.179-7.078l1.618,1.724
			c0.146,0.155,0.349,0.243,0.562,0.243c0.213,0,0.416-0.088,0.562-0.243l2.887-3.075c0.015,0.288,0.024,0.577,0.024,0.865
			C33.5,22.784,32.22,26.359,29.878,29.208L29.878,29.208z M36.86,11.5c-0.374,0.991-0.946,1.895-1.68,2.658l-5.157,5.493
			l-5.157-5.493c-0.734-0.763-1.306-1.667-1.68-2.657c-0.351-0.943-0.499-1.949-0.435-2.953c0.121-1.849,0.908-3.592,2.214-4.906
			c1.34-1.344,3.16-2.1,5.058-2.1c1.898,0,3.718,0.755,5.058,2.1c1.306,1.314,2.093,3.057,2.214,4.906
			C37.359,9.551,37.211,10.557,36.86,11.5z"/>
		<path fill="#FFFFFF" d="M30.023,4.113c-2.312,0-4.194,1.923-4.194,4.286c0,2.363,1.882,4.286,4.194,4.286s4.194-1.923,4.194-4.286
			C34.217,6.035,32.336,4.113,30.023,4.113z M30.023,11.144c-1.463,0-2.653-1.231-2.653-2.745s1.19-2.745,2.653-2.745
			s2.652,1.231,2.652,2.745S31.486,11.144,30.023,11.144z"/>
	</g>
</g>
<g>
</g>
<g>
</g>
<g>
</g>
<g>
</g>
<g>
</g>
<g>
</g>
</svg>
