<?xml version="1.0" encoding="utf-8"?>
<!-- Generator: Adobe Illustrator 24.0.1, SVG Export Plug-In . SVG Version: 6.00 Build 0)  -->
<!DOCTYPE svg PUBLIC "-//W3C//DTD SVG 1.1//EN" "http://www.w3.org/Graphics/SVG/1.1/DTD/svg11.dtd" [
	<!ENTITY ns_extend "http://ns.adobe.com/Extensibility/1.0/">
	<!ENTITY ns_ai "http://ns.adobe.com/AdobeIllustrator/10.0/">
	<!ENTITY ns_graphs "http://ns.adobe.com/Graphs/1.0/">
	<!ENTITY ns_vars "http://ns.adobe.com/Variables/1.0/">
	<!ENTITY ns_imrep "http://ns.adobe.com/ImageReplacement/1.0/">
	<!ENTITY ns_sfw "http://ns.adobe.com/SaveForWeb/1.0/">
	<!ENTITY ns_custom "http://ns.adobe.com/GenericCustomNamespace/1.0/">
	<!ENTITY ns_adobe_xpath "http://ns.adobe.com/XPath/1.0/">
]>
<svg version="1.1" id="Calque_1" xmlns:x="&ns_extend;" xmlns:i="&ns_ai;" xmlns:graph="&ns_graphs;"
	 xmlns="http://www.w3.org/2000/svg" xmlns:xlink="http://www.w3.org/1999/xlink" x="0px" y="0px" viewBox="0 0 112.596 101.392"
	 enable-background="new 0 0 112.596 101.392" xml:space="preserve">
<metadata>
	<sfw  xmlns="&ns_sfw;">
		<slices></slices>
		<sliceSourceBounds  bottomLeftOrigin="true" height="101.392" width="112.596" x="551.783" y="-530.632"></sliceSourceBounds>
	</sfw>
</metadata>
<g>
	<path fill="#5A6F7A" d="M56.615,34.631c0.002-1.221-0.987-2.213-2.21-2.215h-0.003c-1.221,0-2.211,0.989-2.212,2.21l-0.007,5.19
		c-0.011,5.501-3.91,10.228-9.31,11.281L42.91,25.6c0.002-1.221-0.987-2.213-2.21-2.215h-0.003c-1.221,0-2.211,0.988-2.212,2.21
		l-0.039,27.92c-0.001,1.221,0.988,2.213,2.21,2.215h0.023c8.789,0,15.919-7.119,15.93-15.908L56.615,34.631z"/>
	<path fill="#5A6F7A" d="M61.649,34.958h0.006c1.969,0.001,3.566-1.594,3.567-3.563s-1.594-3.566-3.563-3.566h-0.005
		c-1.969-0.002-3.566,1.593-3.566,3.562C58.085,33.359,59.68,34.956,61.649,34.958z M61.046,30.784
		c0.162-0.16,0.38-0.251,0.608-0.252c0.475,0,0.86,0.386,0.86,0.861c-0.001,0.475-0.386,0.859-0.861,0.859
		c-0.348-0.001-0.662-0.21-0.794-0.532C60.726,31.399,60.8,31.03,61.046,30.784z"/>
	<path fill="#5A6F7A" d="M111.758,27.543c-3.343-16.567-15.32-27.271-30.513-27.271c-7.944,0-16.537,3.054-24.936,8.846
		C47.797,3.066,39.356,0,31.202,0C15.921,0,3.995,10.822,0.819,27.563c-4.637,24.17,10.046,56.24,53.3,73.402
		c0.038,0.015,0.077,0.029,0.116,0.042c1.322,0.513,2.789,0.513,4.111,0c0.045-0.014,0.088-0.031,0.132-0.049
		c19.83-8.035,35.215-19.815,44.49-34.071c8.16-12.54,11.283-26.508,8.793-39.33C111.76,27.553,111.759,27.548,111.758,27.543z
		 M28.022,80.88c1.788-0.658,3.397-1.727,4.696-3.12l21.701,0.028l-0.01,17.42c0,0.45,0.137,0.89,0.395,1.261
		C44.028,92.092,35.155,86.765,28.022,80.88z M35.358,73.339c0.245-0.731,0.419-1.483,0.52-2.246l18.706,0.027
		c-0.09,0.744-0.141,1.493-0.154,2.243L35.358,73.339z M55.6,66.696l-19.609-0.028l0.059-39.761c0.004-2.757,2.24-4.99,4.996-4.99
		h0.006l20.272,0.029c0.762,0.002,1.478,0.372,1.921,0.994l9.339,13.146c0.958,1.35,2.511,2.153,4.167,2.156l3.059,0.004
		l10.317,8.969l-0.005,2.732c-0.001,1.302-1.057,2.357-2.359,2.357h-0.004l-20.346-0.029c-3.315-0.004-6.563-0.942-9.369-2.707
		c-1.033-0.638-2.387-0.322-3.034,0.706c-0.646,1.028-0.343,2.384,0.679,3.04c2.344,1.473,4.945,2.493,7.668,3.004
		c-0.939,0.674-1.822,1.423-2.641,2.238C58.413,60.845,56.663,63.629,55.6,66.696z M86.564,38.257l2.182,0.003
		c0.769,0.003,1.39,0.626,1.39,1.394l-0.003,1.706L86.564,38.257z M99.258,64.476c-8.495,13.055-22.512,23.962-40.613,31.625
		c0.125-0.28,0.189-0.584,0.189-0.891l0.006-9.772c2.708,2.654,6.584,3.744,10.279,2.889l2.176-0.502
		c1.191-0.275,1.934-1.463,1.659-2.653l-0.502-2.176c-1.382-5.991-7.36-9.728-13.351-8.346l-0.255,0.059v-1.009
		c0.013-9.375,7.617-16.968,16.992-16.968h0.028c0.088-0.001,0.176-0.007,0.263-0.017l11.622,0.016h0.01
		c3.742-0.004,6.776-3.034,6.785-6.775l0.014-10.294c0.002-3.211-2.597-5.818-5.809-5.826l-11.996-0.017
		c-0.064,0-0.128-0.009-0.189-0.027c-0.152-0.043-0.284-0.137-0.376-0.266l-9.339-13.147c-1.271-1.787-3.328-2.851-5.522-2.856
		l-20.271-0.029h-0.014c-5.197,0.001-9.413,4.21-9.421,9.407l-0.062,42.609c-0.012,4.241-3.451,7.674-7.692,7.679
		c-0.009,0-0.017,0-0.026,0C7.635,61.812,2.283,43.419,5.167,28.39c1.374-7.242,4.556-13.314,9.201-17.56
		c4.587-4.19,10.409-6.405,16.834-6.405c7.596,0,15.592,3.092,23.766,9.19c0.776,0.579,1.839,0.586,2.623,0.017
		c8.054-5.846,16.234-8.935,23.654-8.935c6.41,0,12.24,2.206,16.86,6.379c4.653,4.204,7.873,10.197,9.315,17.334
		C109.685,40.098,106.787,52.905,99.258,64.476L99.258,64.476z M60.075,78.964l0.021-0.005c3.609-0.827,7.207,1.422,8.044,5.029
		l0.005,0.021l-0.021,0.005c-3.609,0.827-7.207-1.422-8.045-5.029L60.075,78.964z"/>
</g>
<g>
</g>
<g>
</g>
<g>
</g>
<g>
</g>
<g>
</g>
<g>
</g>
</svg>
