<?xml version="1.0" encoding="utf-8"?>
<!-- Generator: Adobe Illustrator 24.0.1, SVG Export Plug-In . SVG Version: 6.00 Build 0)  -->
<!DOCTYPE svg PUBLIC "-//W3C//DTD SVG 1.1//EN" "http://www.w3.org/Graphics/SVG/1.1/DTD/svg11.dtd" [
	<!ENTITY ns_extend "http://ns.adobe.com/Extensibility/1.0/">
	<!ENTITY ns_ai "http://ns.adobe.com/AdobeIllustrator/10.0/">
	<!ENTITY ns_graphs "http://ns.adobe.com/Graphs/1.0/">
	<!ENTITY ns_vars "http://ns.adobe.com/Variables/1.0/">
	<!ENTITY ns_imrep "http://ns.adobe.com/ImageReplacement/1.0/">
	<!ENTITY ns_sfw "http://ns.adobe.com/SaveForWeb/1.0/">
	<!ENTITY ns_custom "http://ns.adobe.com/GenericCustomNamespace/1.0/">
	<!ENTITY ns_adobe_xpath "http://ns.adobe.com/XPath/1.0/">
]>
<svg version="1.1" id="Calque_1" xmlns:x="&ns_extend;" xmlns:i="&ns_ai;" xmlns:graph="&ns_graphs;"
	 xmlns="http://www.w3.org/2000/svg" xmlns:xlink="http://www.w3.org/1999/xlink" x="0px" y="0px" viewBox="0 0 103.977 82.936"
	 enable-background="new 0 0 103.977 82.936" xml:space="preserve">
<metadata>
	<sfw  xmlns="&ns_sfw;">
		<slices></slices>
		<sliceSourceBounds  bottomLeftOrigin="true" height="82.677" width="57.683" x="542.159" y="-819.838"></sliceSourceBounds>
	</sfw>
</metadata>
<g>
	<path fill="#5A6F7A" d="M32.557,82.81c-2.119,0-3.844-1.724-3.844-3.843v-4.125l0.004-0.015l0.007-0.079
		c0.005-0.095,0.027-0.203,0.065-0.304l0.05-0.147l5.388-10.781c1.137-2.24,3.406-3.642,5.92-3.658h2.244l0.634-3.484l-0.263-0.089
		c-13.441-4.54-21.526-17.995-19.225-31.993S37.803,0.133,51.988,0.133s26.151,10.16,28.452,24.158
		c2.3,13.998-5.786,27.453-19.226,31.993l-0.263,0.089l0.634,3.484h2.246c2.511,0.015,4.78,1.416,5.919,3.656l5.391,10.794
		l0.056,0.152c0.033,0.091,0.055,0.199,0.061,0.31l0.002,0.04l0.009,0.033v4.125c0,2.119-1.724,3.843-3.844,3.843H32.557z
		 M30.841,78.972c0,0.943,0.767,1.71,1.71,1.71h38.874c0.943,0,1.71-0.767,1.71-1.71v-3.098H30.841V78.972z M40.144,61.99
		c-1.705,0.01-3.243,0.961-4.015,2.481l-4.629,9.27h40.979l-4.631-9.272c-0.773-1.52-2.311-2.469-4.013-2.479h-1.859l0.181,1.02
		c0.205,1.126-0.097,2.274-0.829,3.152c-0.732,0.878-1.808,1.381-2.951,1.382H45.602c-1.146,0-2.221-0.503-2.954-1.381
		c-0.732-0.878-1.035-2.027-0.829-3.153l0.185-1.02H40.144L40.144,61.99z M43.92,63.392c-0.091,0.5,0.043,1.011,0.368,1.402
		c0.327,0.391,0.805,0.615,1.314,0.616h12.772c0.51,0,0.988-0.224,1.314-0.613c0.327-0.391,0.461-0.902,0.371-1.403l-1.164-6.435
		l-0.332,0.08c-2.148,0.521-4.359,0.785-6.57,0.785c-2.211,0-4.422-0.264-6.57-0.785l-0.332-0.08L43.92,63.392z M51.988,2.29
		c-14.706,0.016-26.684,11.994-26.7,26.7c0,14.723,11.978,26.701,26.701,26.701s26.701-11.978,26.701-26.7
		C78.689,14.268,66.711,2.29,51.988,2.29L51.988,2.29z"/>
	<path fill="#5A6F7A" d="M51.822,49.536c-0.588,0-1.066-0.478-1.066-1.067c0-0.588,0.478-1.066,1.066-1.066l0.348,0.001
		c2.875,0,5.729-0.724,8.255-2.093l0.199-0.108L60.59,44.98c-0.111-0.742-0.166-1.496-0.163-2.243l0.003-0.573l-0.491,0.297
		c-1.279,0.774-2.663,1.354-4.113,1.724c-0.43,0.11-0.887,0.202-1.394,0.281c-0.055,0.008-0.111,0.013-0.167,0.013
		c-0.553,0-1.02-0.433-1.063-0.984c-0.042-0.551,0.352-1.051,0.898-1.136c0.441-0.069,0.836-0.148,1.207-0.244
		c1.754-0.442,3.37-1.23,4.802-2.34l0.139-0.108l-0.016-0.175c-0.165-1.803-1.098-3.45-2.559-4.518l-0.209-0.153l-0.194,0.172
		c-1.458,1.291-3.334,2.002-5.281,2.002c-0.029,0-0.056-0.003-0.083-0.005c-0.043-0.003-0.086-0.007-0.131-0.007h-0.248l-0.063,0.24
		c-2.127,8.143-4.907,12.271-8.264,12.271h-0.261c-1.346-0.117-2.654-0.512-3.862-1.174c-2.396-1.323-4.492-3.21-6.059-5.455
		c-2.858-3.974-3.998-8.469-3.051-12.027c0.176-0.887,0.66-1.656,1.366-2.186l0.126-0.094l0.003-0.157
		c0.024-1.307,0.182-2.616,0.469-3.891c0.48-2.149,1.296-4.197,2.425-6.087c0.192-0.338,0.547-0.544,0.929-0.544
		c0.392,0.002,0.747,0.213,0.934,0.55c0.187,0.336,0.177,0.749-0.025,1.076c-1.018,1.705-1.753,3.546-2.187,5.477
		c-0.229,1.03-0.364,2.087-0.401,3.143l-0.008,0.233l0.218,0.08c0.691,0.255,1.364,0.573,2.002,0.947l0.485,0.285v-0.693
		c-0.003-1.442,0.193-2.875,0.581-4.262c0.136-0.503,0.303-1.002,0.498-1.485c0.164-0.403,0.552-0.664,0.988-0.664
		c0.138,0,0.272,0.026,0.401,0.079c0.544,0.221,0.808,0.845,0.587,1.39c-0.165,0.408-0.306,0.831-0.42,1.255
		c-0.336,1.2-0.505,2.444-0.502,3.694c-0.006,0.552,0.033,1.111,0.115,1.659l0.025,0.167l0.152,0.075
		c0.877,0.431,1.857,0.659,2.835,0.659c0.831,0,1.643-0.158,2.413-0.47l0.253-0.102l-0.059-0.266
		c-0.456-2.052-0.089-4.16,1.033-5.938l0.138-0.218l-0.183-0.182c-6.142-6.108-8.185-10.491-6.245-13.399
		c1.863-2.794,5.98-4.822,10.745-5.292c0.673-0.067,1.351-0.101,2.013-0.101c4.065,0,7.665,1.268,9.876,3.479
		c0.7,0.61,1.124,1.434,1.21,2.335l0.016,0.159l0.136,0.084c1.103,0.68,2.145,1.469,3.097,2.346c1.581,1.476,2.92,3.184,3.976,5.074
		c0.286,0.513,0.101,1.163-0.412,1.45c-0.157,0.089-0.334,0.135-0.514,0.135c-0.391,0-0.748-0.209-0.936-0.546
		c-0.95-1.699-2.153-3.234-3.574-4.56c-0.779-0.718-1.625-1.371-2.517-1.943l-0.197-0.127l-0.181,0.149
		c-0.571,0.47-1.186,0.893-1.826,1.258l-0.492,0.28l0.492,0.279c1.283,0.73,2.455,1.636,3.484,2.695
		c0.353,0.37,0.692,0.763,1.003,1.167c0.362,0.465,0.277,1.137-0.187,1.498c-0.189,0.147-0.416,0.224-0.654,0.224
		c-0.333,0-0.64-0.15-0.844-0.412c-0.263-0.343-0.551-0.678-0.854-0.996c-1.246-1.281-2.706-2.286-4.344-2.989l-0.162-0.069
		l-0.146,0.099c-1.503,1.017-2.504,2.632-2.747,4.43l-0.036,0.261l0.25,0.086c1.952,0.675,3.552,2.055,4.507,3.887l0.12,0.23
		l0.25-0.069c3.532-0.966,6.485-1.456,8.779-1.456c3.163,0,5.135,0.888,6.029,2.714c1.488,2.999,1.19,7.569-0.779,11.927
		c-2.01,4.451-5.327,7.674-8.871,8.621c-0.446,0.128-0.902,0.196-1.361,0.203c-0.477,0-0.941-0.128-1.346-0.371l-0.159-0.095
		l-0.162,0.09c-2.876,1.591-6.135,2.432-9.422,2.432L51.822,49.536z M32.364,30.53c-0.16,0.271-0.277,0.564-0.346,0.871
		c-0.78,2.935,0.236,6.757,2.723,10.213c2.39,3.321,5.664,5.577,8.341,5.748l0.082,0.002c2.133,0,4.448-3.925,6.192-10.499
		l0.074-0.28L49.16,36.48c-1.618-0.616-3.014-1.758-3.938-3.222v-0.397l-0.45,0.187c-0.981,0.423-2.006,0.638-3.049,0.638
		c-2.555,0-4.844-1.271-6.516-2.2c-0.739-0.51-1.586-0.888-2.49-1.106l-0.231-0.056L32.364,30.53z M68.183,26.175
		c-2.092,0-4.8,0.444-8.049,1.32l-0.279,0.075l0.044,0.285c0.268,1.732-0.064,3.524-0.933,5.046l-0.143,0.25l0.233,0.17
		c3.383,2.472,3.451,6.465,3.496,9.107c-0.056,0.891,0.042,1.805,0.29,2.691l0.066,0.235h0.312c0.296-0.008,0.581-0.054,0.856-0.137
		c2.927-0.783,5.724-3.564,7.472-7.437c1.687-3.732,2.006-7.699,0.812-10.105C72.023,26.991,71.026,26.175,68.183,26.175z
		 M51.988,23.115c-3.24,0-5.876,2.636-5.876,5.876c0,3.24,2.636,5.875,5.876,5.875c3.24,0,5.876-2.636,5.876-5.875
		C57.864,25.751,55.228,23.115,51.988,23.115z M40.686,12.145c-1.641,2.462,2.965,7.696,5.855,10.597l0.205,0.206l0.226-0.183
		c1.399-1.132,3.16-1.761,4.96-1.772l0.283-0.002l0.035-0.281c0.502-4.074,3.883-6.099,6.12-7.44
		c0.802-0.397,1.546-0.937,2.189-1.595l0.169-0.173l-0.118-0.21c-0.153-0.274-0.349-0.521-0.58-0.736
		c-1.81-1.808-4.854-2.849-8.346-2.849c-0.596,0-1.207,0.03-1.816,0.091c-3.618,0.359-6.86,1.742-8.591,3.611v-0.142L40.686,12.145z
		"/>
	<path fill="#5A6F7A" d="M46.435,71.708c-0.588,0-1.066-0.478-1.066-1.066c0-0.588,0.478-1.067,1.066-1.067
		c0.589,0,1.067,0.478,1.067,1.067C47.502,71.23,47.023,71.708,46.435,71.708z"/>
	<path fill="#5A6F7A" d="M51.988,71.708c-0.588,0-1.066-0.478-1.066-1.066c0-0.588,0.478-1.067,1.066-1.067
		c0.588,0,1.066,0.478,1.066,1.067C53.055,71.23,52.576,71.708,51.988,71.708z"/>
	<path fill="#5A6F7A" d="M57.542,71.708c-0.589,0-1.067-0.478-1.067-1.066c0-0.588,0.478-1.067,1.067-1.067
		c0.588,0,1.066,0.478,1.066,1.067C58.609,71.23,58.13,71.708,57.542,71.708z"/>
</g>
<g>
</g>
<g>
</g>
<g>
</g>
<g>
</g>
<g>
</g>
<g>
</g>
</svg>
