<?xml version="1.0" encoding="utf-8"?>
<!-- Generator: Adobe Illustrator 24.0.1, SVG Export Plug-In . SVG Version: 6.00 Build 0)  -->
<!DOCTYPE svg PUBLIC "-//W3C//DTD SVG 1.1//EN" "http://www.w3.org/Graphics/SVG/1.1/DTD/svg11.dtd" [
	<!ENTITY ns_extend "http://ns.adobe.com/Extensibility/1.0/">
	<!ENTITY ns_ai "http://ns.adobe.com/AdobeIllustrator/10.0/">
	<!ENTITY ns_graphs "http://ns.adobe.com/Graphs/1.0/">
	<!ENTITY ns_vars "http://ns.adobe.com/Variables/1.0/">
	<!ENTITY ns_imrep "http://ns.adobe.com/ImageReplacement/1.0/">
	<!ENTITY ns_sfw "http://ns.adobe.com/SaveForWeb/1.0/">
	<!ENTITY ns_custom "http://ns.adobe.com/GenericCustomNamespace/1.0/">
	<!ENTITY ns_adobe_xpath "http://ns.adobe.com/XPath/1.0/">
]>
<svg version="1.1" id="Calque_1" xmlns:x="&ns_extend;" xmlns:i="&ns_ai;" xmlns:graph="&ns_graphs;"
	 xmlns="http://www.w3.org/2000/svg" xmlns:xlink="http://www.w3.org/1999/xlink" x="0px" y="0px" viewBox="0 0 109.891 107.221"
	 enable-background="new 0 0 109.891 107.221" xml:space="preserve">
<metadata>
	<sfw  xmlns="&ns_sfw;">
		<slices></slices>
		<sliceSourceBounds  bottomLeftOrigin="true" height="107.221" width="109.891" x="552.054" y="-533.653"></sliceSourceBounds>
	</sfw>
</metadata>
<g>
	<path fill="#5A6F7A" d="M19.729,97.264h-5.531c-1.222,0-2.213,0.991-2.213,2.213s0.991,2.213,2.213,2.213h5.531
		c1.222,0,2.213-0.991,2.213-2.213S20.95,97.264,19.729,97.264z"/>
	<path fill="#5A6F7A" d="M109.655,81.103l-6.881-13.686c-0.097-0.192-0.22-0.369-0.367-0.524V14.428
		c-0.003-2.371-1.925-4.293-4.296-4.296H85.676c-1.222,0-2.213,0.99-2.213,2.213c0,1.222,0.991,2.213,2.213,2.213h12.306v51.64
		H33.926v-4.003H92.1c1.222,0,2.213-0.99,2.213-2.213V20.636c0-1.222-0.99-2.213-2.213-2.213h-8.883
		c-1.222,0-2.213,0.99-2.213,2.213c0,1.222,0.991,2.213,2.213,2.213h6.67V57.77H33.926V54.61c-0.004-3.805-2.992-6.938-6.793-7.122
		v-24.64h7.788c1.222,0,2.213-0.991,2.213-2.213c0-1.222-0.991-2.213-2.213-2.213H24.92c-1.222,0-2.213,0.99-2.213,2.213v26.846
		h-3.669V14.557h13.423c1.222,0,2.213-0.991,2.213-2.213c0-1.222-0.991-2.213-2.213-2.213H18.91
		c-2.371,0.003-4.294,1.924-4.296,4.296v33.053H7.129C3.194,47.486,0.005,50.675,0,54.61v45.481
		c0.005,3.935,3.194,7.125,7.129,7.129h19.667c3.935-0.005,7.125-3.194,7.129-7.129v-9.115h69.586
		c3.521-0.004,6.376-2.858,6.379-6.379v-2.5h-0.004C109.888,81.752,109.81,81.411,109.655,81.103z M29.501,100.091
		c-0.002,1.493-1.211,2.702-2.704,2.704H7.129c-1.493-0.002-2.702-1.211-2.704-2.704v-3.933h25.076V100.091z M29.501,91.733H4.425
		v-31.16h24.502c0.103,0.372,0.301,0.711,0.574,0.981V91.733z M29.501,56.147H4.425V54.61c0.002-1.492,1.212-2.702,2.704-2.704
		h19.667c1.492,0.002,2.702,1.212,2.704,2.704V56.147z M33.926,70.624h65.507l4.656,9.26L75.092,79.89l-0.431-1.564
		c-0.768-2.764-3.281-4.678-6.149-4.683H48.509c-2.868,0.006-5.382,1.92-6.15,4.683l-0.432,1.564h-8V70.624z M105.466,84.596
		c-0.001,1.078-0.876,1.953-1.954,1.954H33.926v-2.235h9.686c0.996,0,1.869-0.665,2.133-1.625l0.88-3.189
		c0.235-0.846,1.005-1.433,1.884-1.435h20.004c0.878,0.002,1.648,0.589,1.883,1.435l0.88,3.189c0.264,0.959,1.137,1.625,2.133,1.625
		l32.057-0.006V84.596z"/>
	<path fill="#5A6F7A" d="M38.593,12.394c0.569,0.001,1.117-0.219,1.528-0.614c4.886-4.671,11.446-7.282,18.471-7.353
		c0.099-0.001,0.197-0.002,0.295-0.002c6.934,0,13.363,2.501,18.131,7.059c0.883,0.844,2.285,0.812,3.129-0.071
		c0.844-0.883,0.812-2.284-0.071-3.128C74.4,2.86,66.753-0.085,58.547,0.002c-8.152,0.083-15.782,3.131-21.482,8.579
		c-0.654,0.625-0.861,1.585-0.525,2.424C36.876,11.844,37.69,12.394,38.593,12.394z"/>
	<path fill="#5A6F7A" d="M73.007,18.223c0.848-0.88,0.821-2.281-0.059-3.128c-3.778-3.62-8.819-5.625-14.051-5.587
		c-0.114,0-0.23,0-0.344,0.003c-5.357,0.074-10.486,2.173-14.358,5.875c-0.576,0.545-0.816,1.358-0.63,2.129
		c0.186,0.771,0.772,1.383,1.534,1.604c0.762,0.222,1.585,0.017,2.155-0.534c6.347-6.067,16.495-6.203,22.624-0.302
		C70.759,19.131,72.16,19.105,73.007,18.223z"/>
	<path fill="#5A6F7A" d="M66.242,24.724c0.845-0.883,0.813-2.285-0.07-3.129c-4.092-3.911-10.89-3.779-15.153,0.297
		c-0.883,0.844-0.915,2.245-0.071,3.129c0.844,0.884,2.245,0.916,3.13,0.072c2.531-2.422,6.671-2.557,9.037-0.297
		C63.998,25.64,65.398,25.608,66.242,24.724z"/>
	<path fill="#5A6F7A" d="M58.57,35.706c-1.303,0-2.359-1.056-2.359-2.359s1.056-2.359,2.359-2.359c1.301,0,2.359,1.056,2.359,2.359
		C60.926,34.648,59.871,35.703,58.57,35.706z"/>
</g>
<g>
</g>
<g>
</g>
<g>
</g>
<g>
</g>
<g>
</g>
<g>
</g>
</svg>
