<?xml version="1.0" encoding="utf-8"?>
<!-- Generator: Adobe Illustrator 24.0.1, SVG Export Plug-In . SVG Version: 6.00 Build 0)  -->
<!DOCTYPE svg PUBLIC "-//W3C//DTD SVG 1.1//EN" "http://www.w3.org/Graphics/SVG/1.1/DTD/svg11.dtd" [
	<!ENTITY ns_extend "http://ns.adobe.com/Extensibility/1.0/">
	<!ENTITY ns_ai "http://ns.adobe.com/AdobeIllustrator/10.0/">
	<!ENTITY ns_graphs "http://ns.adobe.com/Graphs/1.0/">
	<!ENTITY ns_vars "http://ns.adobe.com/Variables/1.0/">
	<!ENTITY ns_imrep "http://ns.adobe.com/ImageReplacement/1.0/">
	<!ENTITY ns_sfw "http://ns.adobe.com/SaveForWeb/1.0/">
	<!ENTITY ns_custom "http://ns.adobe.com/GenericCustomNamespace/1.0/">
	<!ENTITY ns_adobe_xpath "http://ns.adobe.com/XPath/1.0/">
]>
<svg version="1.1" id="Calque_1" xmlns:x="&ns_extend;" xmlns:i="&ns_ai;" xmlns:graph="&ns_graphs;"
	 xmlns="http://www.w3.org/2000/svg" xmlns:xlink="http://www.w3.org/1999/xlink" x="0px" y="0px" viewBox="0 0 110.578 86.142"
	 enable-background="new 0 0 110.578 86.142" xml:space="preserve">
<metadata>
	<sfw  xmlns="&ns_sfw;">
		<slices></slices>
		<sliceSourceBounds  bottomLeftOrigin="true" height="86.142" width="110.578" x="551.711" y="-523.071"></sliceSourceBounds>
	</sfw>
</metadata>
<g>
	<path fill="#5A6F7A" d="M36.782,53.293H8.547l-4.399-35.19c-0.142-1.14-1.183-1.95-2.324-1.807c-1.14,0.143-1.95,1.183-1.807,2.324
		l4.627,37.014c0.13,1.042,1.016,1.824,2.066,1.824h3.711L6.044,83.719c-0.19,1.134,0.577,2.207,1.712,2.396
		c0.114,0.019,0.23,0.028,0.344,0.028c1.018-0.001,1.884-0.736,2.051-1.74l4.491-26.946h14.671l4.491,26.946
		c0.167,1.003,1.034,1.739,2.05,1.74c0.116,0,0.231-0.009,0.345-0.028c1.134-0.189,1.9-1.261,1.712-2.396l-4.377-26.261h3.249
		c1.15,0,2.082-0.932,2.082-2.082C38.864,54.225,37.933,53.293,36.782,53.293z"/>
	<path fill="#5A6F7A" d="M108.754,16.295c-1.141-0.143-2.181,0.667-2.324,1.807l-4.399,35.19H73.796
		c-1.149,0-2.082,0.933-2.082,2.082c0,1.15,0.933,2.082,2.082,2.082h3.249l-4.376,26.262c-0.19,1.134,0.577,2.207,1.712,2.396
		c0.114,0.019,0.23,0.028,0.344,0.028c1.018-0.001,1.884-0.736,2.051-1.74l4.491-26.946h14.671l4.491,26.946
		c0.167,1.003,1.034,1.739,2.05,1.74c0.116,0,0.231-0.009,0.345-0.028c1.134-0.189,1.9-1.261,1.712-2.396l-4.377-26.261h3.711
		c1.05,0,1.936-0.782,2.066-1.824l4.627-37.014C110.705,17.478,109.896,16.438,108.754,16.295z"/>
	<path fill="#5A6F7A" d="M84.9,41.263c1.15,0,2.082-0.932,2.082-2.082c0-1.149-0.932-2.082-2.082-2.082H23.134
		c-1.149,0-2.082,0.933-2.082,2.082c0,1.15,0.933,2.082,2.082,2.082h29.268c-0.23,0.342-0.352,0.745-0.352,1.157v41.64
		c0,1.15,0.933,2.082,2.082,2.082c1.15,0,2.082-0.932,2.082-2.082V42.42c0.001-0.412-0.122-0.814-0.351-1.157H84.9z"/>
	<g>
		<path fill="#5A6F7A" d="M42.566,34.006h23.133c1.15,0,2.082-0.932,2.082-2.082c-0.008-6.731-4.916-12.454-11.567-13.49v-1.316
			c0-1.149-0.932-2.082-2.082-2.082c-1.149,0-2.082,0.933-2.082,2.082v1.316c-6.651,1.036-11.558,6.758-11.567,13.49
			C40.484,33.075,41.416,34.006,42.566,34.006z M54.132,22.439c4.434,0.006,8.274,3.079,9.253,7.403H44.879
			C45.859,25.518,49.698,22.446,54.132,22.439z"/>
		<path fill="#5A6F7A" d="M54.132,11.104c1.15,0,2.082-0.932,2.082-2.082v-6.94C56.214,0.933,55.283,0,54.132,0
			c-1.149,0-2.082,0.933-2.082,2.082v6.94C52.05,10.172,52.983,11.104,54.132,11.104z"/>
	</g>
	<path fill="#5A6F7A" d="M61.766,15.962c1.15,0,2.082-0.932,2.082-2.082V9.485c0-1.149-0.932-2.082-2.082-2.082
		c-1.149,0-2.082,0.933-2.082,2.082v4.395C59.684,15.03,60.617,15.962,61.766,15.962z"/>
	<path fill="#5A6F7A" d="M47.192,15.962c1.15,0,2.082-0.932,2.082-2.082V9.485c0-1.149-0.932-2.082-2.082-2.082
		c-1.149,0-2.082,0.933-2.082,2.082v4.395C45.11,15.03,46.043,15.962,47.192,15.962z"/>
</g>
<g>
</g>
<g>
</g>
<g>
</g>
<g>
</g>
<g>
</g>
<g>
</g>
</svg>
