<?xml version="1.0" encoding="utf-8"?>
<!-- Generator: Adobe Illustrator 24.0.1, SVG Export Plug-In . SVG Version: 6.00 Build 0)  -->
<!DOCTYPE svg PUBLIC "-//W3C//DTD SVG 1.1//EN" "http://www.w3.org/Graphics/SVG/1.1/DTD/svg11.dtd" [
	<!ENTITY ns_extend "http://ns.adobe.com/Extensibility/1.0/">
	<!ENTITY ns_ai "http://ns.adobe.com/AdobeIllustrator/10.0/">
	<!ENTITY ns_graphs "http://ns.adobe.com/Graphs/1.0/">
	<!ENTITY ns_vars "http://ns.adobe.com/Variables/1.0/">
	<!ENTITY ns_imrep "http://ns.adobe.com/ImageReplacement/1.0/">
	<!ENTITY ns_sfw "http://ns.adobe.com/SaveForWeb/1.0/">
	<!ENTITY ns_custom "http://ns.adobe.com/GenericCustomNamespace/1.0/">
	<!ENTITY ns_adobe_xpath "http://ns.adobe.com/XPath/1.0/">
]>
<svg version="1.1" id="Calque_1" xmlns:x="&ns_extend;" xmlns:i="&ns_ai;" xmlns:graph="&ns_graphs;"
	 xmlns="http://www.w3.org/2000/svg" xmlns:xlink="http://www.w3.org/1999/xlink" x="0px" y="0px" viewBox="0 0 53.885 53.883"
	 enable-background="new 0 0 53.885 53.883" xml:space="preserve">
<metadata>
	<sfw  xmlns="&ns_sfw;">
		<slices></slices>
		<sliceSourceBounds  bottomLeftOrigin="true" height="53.883" width="53.885" x="0" y="0"></sliceSourceBounds>
	</sfw>
</metadata>
<g>
	<path fill="#596F7A" d="M10.787,22.122c-0.57,0-1.075-0.341-1.287-0.87c-0.212-0.528-0.082-1.124,0.329-1.517
		c4.537-4.337,10.61-6.761,17.099-6.827l0.283-0.002c6.418,0,12.401,2.34,16.846,6.589c0.268,0.256,0.419,0.6,0.428,0.97
		c0.009,0.37-0.128,0.721-0.383,0.988c-0.264,0.276-0.619,0.428-1.002,0.428c-0.359,0-0.698-0.136-0.957-0.383
		c-3.926-3.754-9.233-5.821-14.944-5.821l-0.24,0.002c-5.787,0.058-11.19,2.21-15.217,6.059c-0.258,0.248-0.596,0.384-0.953,0.384
		H10.787z"/>
	<path fill="#596F7A" d="M16.546,27.632c-0.13,0-0.26-0.019-0.385-0.055c-0.476-0.138-0.844-0.522-0.96-1.003
		c-0.117-0.482,0.034-0.993,0.394-1.334c3.069-2.935,7.096-4.583,11.34-4.641l0.389-0.003c4.107,0,8.003,1.565,10.968,4.406
		c0.549,0.529,0.566,1.408,0.036,1.958c-0.264,0.274-0.618,0.425-0.998,0.425l0,0c-0.36,0-0.701-0.137-0.96-0.387
		c-2.426-2.336-5.687-3.622-9.182-3.622c-3.632,0-7.069,1.373-9.676,3.865C17.25,27.494,16.908,27.632,16.546,27.632z"/>
	<path fill="#596F7A" d="M22.073,32.889c-0.382,0-0.738-0.152-1.002-0.429c-0.257-0.268-0.393-0.618-0.385-0.988
		c0.009-0.37,0.16-0.715,0.428-0.97c1.64-1.568,3.8-2.432,6.079-2.432c2.144,0,4.139,0.778,5.617,2.192
		c0.268,0.256,0.419,0.6,0.428,0.97c0.008,0.37-0.128,0.721-0.384,0.988c-0.264,0.276-0.62,0.428-1.002,0.428l0,0
		c-0.358,0-0.697-0.136-0.956-0.383c-0.954-0.912-2.268-1.415-3.699-1.415c-1.549,0-3.069,0.603-4.169,1.655
		C22.77,32.752,22.431,32.889,22.073,32.889z"/>
	<path fill="#596F7A" d="M26.942,40.977c-0.829,0-1.503-0.675-1.503-1.503c0-0.829,0.675-1.503,1.504-1.503s1.503,0.674,1.503,1.503
		C28.444,40.3,27.77,40.975,26.942,40.977z"/>
	<path fill="#596F7A" d="M26.942,53.883C12.086,53.883,0,41.798,0,26.942S12.086,0,26.942,0s26.943,12.086,26.943,26.942
		C53.885,41.798,41.798,53.883,26.942,53.883z M26.942,2.378c-13.545,0-24.564,11.019-24.564,24.564
		c0,13.544,11.019,24.563,24.564,24.563s24.565-11.019,24.565-24.563S40.487,2.378,26.942,2.378z"/>
</g>
</svg>
