<?xml version="1.0" encoding="utf-8"?>
<!-- Generator: Adobe Illustrator 24.0.1, SVG Export Plug-In . SVG Version: 6.00 Build 0)  -->
<!DOCTYPE svg PUBLIC "-//W3C//DTD SVG 1.1//EN" "http://www.w3.org/Graphics/SVG/1.1/DTD/svg11.dtd" [
	<!ENTITY ns_extend "http://ns.adobe.com/Extensibility/1.0/">
	<!ENTITY ns_ai "http://ns.adobe.com/AdobeIllustrator/10.0/">
	<!ENTITY ns_graphs "http://ns.adobe.com/Graphs/1.0/">
	<!ENTITY ns_vars "http://ns.adobe.com/Variables/1.0/">
	<!ENTITY ns_imrep "http://ns.adobe.com/ImageReplacement/1.0/">
	<!ENTITY ns_sfw "http://ns.adobe.com/SaveForWeb/1.0/">
	<!ENTITY ns_custom "http://ns.adobe.com/GenericCustomNamespace/1.0/">
	<!ENTITY ns_adobe_xpath "http://ns.adobe.com/XPath/1.0/">
]>
<svg version="1.1" id="Calque_1" xmlns:x="&ns_extend;" xmlns:i="&ns_ai;" xmlns:graph="&ns_graphs;"
	 xmlns="http://www.w3.org/2000/svg" xmlns:xlink="http://www.w3.org/1999/xlink" x="0px" y="0px" viewBox="0 0 69.2 113.8"
	 style="enable-background:new 0 0 69.2 113.8;" xml:space="preserve">
<style type="text/css">
	.st0{fill:#5A6F7A;}
</style>
<metadata>
	<sfw  xmlns="&ns_sfw;">
		<slices></slices>
		<sliceSourceBounds  bottomLeftOrigin="true" height="113.8" width="69.2" x="-0.5" y="-0.5"></sliceSourceBounds>
	</sfw>
</metadata>
<g>
	<path class="st0" d="M34.6,45.6l-0.2,0c-10.6,0-20.5,4.8-27.1,13.1C-3.2,71.9-2.3,91,9.4,103.2c6.5,6.8,15.6,10.7,25,10.7h0.2
		c19.1,0,34.6-15.3,34.6-34.1S53.6,45.6,34.6,45.6z M34.4,51l0.1,0c16.1,0,29.2,12.9,29.2,28.7c0,15.8-13.1,28.7-29.2,28.7h-0.2
		c-7.9,0-15.6-3.3-21.1-9C3.5,89.2,2.7,73.1,11.6,62C17.1,55,25.5,51,34.4,51z"/>
	<path class="st0" d="M30.3,84.8l8.9,5.6c0.4,0.3,0.9,0.4,1.5,0.4c0.4,0,0.9-0.1,1.3-0.3c0.9-0.4,1.4-1.3,1.4-2.3
		c0-1-0.5-1.9-1.3-2.4L34.4,81V65.1c0-1.5-1.2-2.7-2.7-2.7c-1.5,0-2.7,1.2-2.7,2.7v17.4C29,83.4,29.5,84.3,30.3,84.8z"/>
	<path class="st0" d="M12.5,23.1c0.5,0.5,1.2,0.8,1.9,0.8c0.7,0,1.4-0.3,1.9-0.8c0.5-0.5,0.8-1.2,0.8-1.9c0-0.7-0.3-1.4-0.8-1.9
		l-4.6-4.6H64c1.5,0,2.7-1.2,2.7-2.7S65.5,9.3,64,9.3H11.7l4.6-4.6c1.1-1.1,1.1-2.8,0-3.8C15.8,0.3,15.1,0,14.4,0
		c-0.7,0-1.4,0.3-1.9,0.8l-9.3,9.3c-1.1,1.1-1.1,2.8,0,3.8L12.5,23.1z"/>
	<path class="st0" d="M5.1,32.4h52.4L52.8,37c-1.1,1.1-1.1,2.8,0,3.8c0.5,0.5,1.2,0.8,1.9,0.8c0.7,0,1.4-0.3,1.9-0.8l9.3-9.3
		c0.5-0.5,0.8-1.2,0.8-1.9c0-0.7-0.3-1.4-0.8-1.9l-9.3-9.3c-0.5-0.5-1.2-0.8-1.9-0.8s-1.4,0.3-1.9,0.8c-1.1,1.1-1.1,2.8,0,3.8
		l4.6,4.6H5.1c-1.5,0-2.7,1.2-2.7,2.7S3.6,32.4,5.1,32.4z"/>
</g>
</svg>
