<?xml version="1.0" encoding="utf-8"?>
<!-- Generator: Adobe Illustrator 24.0.1, SVG Export Plug-In . SVG Version: 6.00 Build 0)  -->
<!DOCTYPE svg PUBLIC "-//W3C//DTD SVG 1.1//EN" "http://www.w3.org/Graphics/SVG/1.1/DTD/svg11.dtd" [
	<!ENTITY ns_extend "http://ns.adobe.com/Extensibility/1.0/">
	<!ENTITY ns_ai "http://ns.adobe.com/AdobeIllustrator/10.0/">
	<!ENTITY ns_graphs "http://ns.adobe.com/Graphs/1.0/">
	<!ENTITY ns_vars "http://ns.adobe.com/Variables/1.0/">
	<!ENTITY ns_imrep "http://ns.adobe.com/ImageReplacement/1.0/">
	<!ENTITY ns_sfw "http://ns.adobe.com/SaveForWeb/1.0/">
	<!ENTITY ns_custom "http://ns.adobe.com/GenericCustomNamespace/1.0/">
	<!ENTITY ns_adobe_xpath "http://ns.adobe.com/XPath/1.0/">
]>
<svg version="1.1" id="Calque_1" xmlns:x="&ns_extend;" xmlns:i="&ns_ai;" xmlns:graph="&ns_graphs;"
	 xmlns="http://www.w3.org/2000/svg" xmlns:xlink="http://www.w3.org/1999/xlink" x="0px" y="0px" viewBox="0 0 68.182 112.842"
	 enable-background="new 0 0 68.182 112.842" xml:space="preserve">
<metadata>
	<sfw  xmlns="&ns_sfw;">
		<slices></slices>
		<sliceSourceBounds  bottomLeftOrigin="true" height="112.842" width="68.182" x="574.487" y="-536.505"></sliceSourceBounds>
	</sfw>
</metadata>
<g>
	<path fill="#5A6F7A" d="M34.091,45.605c-10.447-0.046-20.338,4.703-26.836,12.883C-3.155,71.546-2.271,90.299,9.32,102.32
		c6.46,6.764,15.418,10.569,24.771,10.521c18.796,0,34.091-15.082,34.091-33.618C68.182,60.686,52.887,45.605,34.091,45.605z
		 M34.091,108.424c-8.148,0.043-15.954-3.27-21.583-9.161C2.447,88.837,1.678,72.567,10.711,61.238
		c5.662-7.124,14.279-11.258,23.38-11.216c16.361,0,29.674,13.1,29.674,29.201S50.453,108.424,34.091,108.424z"/>
	<path fill="#5A6F7A" d="M41.3,85.72l-7.844-4.951V64.574c0-1.22-0.988-2.208-2.208-2.208c-1.219,0-2.208,0.988-2.208,2.208v17.412
		c0,0.758,0.389,1.464,1.03,1.867l8.874,5.602c0.667,0.426,1.511,0.461,2.212,0.094c0.701-0.367,1.152-1.081,1.182-1.873
		C42.368,86.885,41.973,86.138,41.3,85.72L41.3,85.72z"/>
	<g>
		<path fill="#5A6F7A" d="M15.464,0.647c-0.863-0.863-2.261-0.863-3.124,0L3.082,9.905c-0.862,0.862-0.862,2.26,0,3.123l9.258,9.258
			c0.863,0.863,2.261,0.863,3.124,0c0.863-0.863,0.863-2.261,0-3.124l-5.488-5.488h53.562c1.219,0,2.208-0.988,2.208-2.208
			c0-1.219-0.989-2.208-2.208-2.208H9.976l5.488-5.487C16.326,2.908,16.326,1.51,15.464,0.647z"/>
		<path fill="#5A6F7A" d="M52.719,40.013c0.862,0.863,2.26,0.863,3.123,0l9.258-9.258c0.863-0.863,0.863-2.261,0-3.123l-9.258-9.259
			c-0.863-0.862-2.261-0.862-3.123,0c-0.863,0.863-0.863,2.261,0,3.124l5.487,5.488H4.645c-1.22,0-2.208,0.988-2.208,2.208
			c0,1.219,0.988,2.208,2.208,2.208h53.561l-5.487,5.487C51.856,37.751,51.856,39.15,52.719,40.013z"/>
	</g>
</g>
<g>
</g>
<g>
</g>
<g>
</g>
<g>
</g>
<g>
</g>
<g>
</g>
</svg>
