<?xml version="1.0" encoding="utf-8"?>
<!-- Generator: Adobe Illustrator 24.0.1, SVG Export Plug-In . SVG Version: 6.00 Build 0)  -->
<!DOCTYPE svg PUBLIC "-//W3C//DTD SVG 1.1//EN" "http://www.w3.org/Graphics/SVG/1.1/DTD/svg11.dtd" [
	<!ENTITY ns_extend "http://ns.adobe.com/Extensibility/1.0/">
	<!ENTITY ns_ai "http://ns.adobe.com/AdobeIllustrator/10.0/">
	<!ENTITY ns_graphs "http://ns.adobe.com/Graphs/1.0/">
	<!ENTITY ns_vars "http://ns.adobe.com/Variables/1.0/">
	<!ENTITY ns_imrep "http://ns.adobe.com/ImageReplacement/1.0/">
	<!ENTITY ns_sfw "http://ns.adobe.com/SaveForWeb/1.0/">
	<!ENTITY ns_custom "http://ns.adobe.com/GenericCustomNamespace/1.0/">
	<!ENTITY ns_adobe_xpath "http://ns.adobe.com/XPath/1.0/">
]>
<svg version="1.1" id="Calque_1" xmlns:x="&ns_extend;" xmlns:i="&ns_ai;" xmlns:graph="&ns_graphs;"
	 xmlns="http://www.w3.org/2000/svg" xmlns:xlink="http://www.w3.org/1999/xlink" x="0px" y="0px" viewBox="0 0 158.532 130.825"
	 enable-background="new 0 0 158.532 130.825" xml:space="preserve">
<metadata>
	<sfw  xmlns="&ns_sfw;">
		<slices></slices>
		<sliceSourceBounds  bottomLeftOrigin="true" height="130.825" width="158.532" x="512.268" y="-528.416"></sliceSourceBounds>
	</sfw>
</metadata>
<g>
	<path fill="#DCEDFB" d="M87.35,25.643l-4.193,0.262L64.46,30.387L44.663,58.503v29.332l19.875,24.196l18.54,5.46l4.271,0.131
		c22.664-3.065,40.136-22.485,40.136-45.99C127.486,48.128,110.014,28.707,87.35,25.643L87.35,25.643z"/>
	<path fill="#93C7ED" d="M12.158,72.229h8.675c0.083,0,0.165,0.005,0.246,0.012V40.286h-9.168v31.956
		C11.993,72.234,12.075,72.229,12.158,72.229z"/>
	<path fill="#93C7ED" d="M144.78,65.734v12.622c0.081-0.009,0.163-0.014,0.246-0.014h8.675c0.083,0,0.165,0.005,0.246,0.014V65.734
		H144.78z"/>
	<path fill="#B8DBF5" d="M47.214,71.632c0-23.504,17.472-42.925,40.136-45.99c-2.053-0.278-4.148-0.424-6.277-0.424
		c-25.634,0-46.414,20.78-46.414,46.414c0,25.634,20.78,46.414,46.414,46.414c2.129,0,4.224-0.146,6.277-0.424
		C64.686,114.557,47.214,95.136,47.214,71.632z"/>
	<path fill="#BC845B" d="M25.65,121.17l-2.19-47.101c-0.074-1.397-1.229-2.491-2.627-2.491h-8.675c-1.399,0-2.553,1.095-2.627,2.491
		l-2.19,47.101c-0.279,5.247,3.9,9.654,9.155,9.654C21.75,130.825,25.929,126.417,25.65,121.17z"/>
	<g>
		<path fill="#B8DBF5" d="M11.912,34.887c-1.302,0-2.357-1.055-2.357-2.357V3.455c0-1.302,1.055-2.357,2.357-2.357
			s2.357,1.055,2.357,2.357V32.53C14.268,33.831,13.213,34.887,11.912,34.887z"/>
	</g>
	<g>
		<path fill="#DCEDFB" d="M21.079,34.887c-1.302,0-2.357-1.055-2.357-2.357V3.455c0-1.302,1.055-2.357,2.357-2.357
			s2.357,1.055,2.357,2.357V32.53C23.436,33.831,22.381,34.887,21.079,34.887z"/>
	</g>
	<path fill="#DCEDFB" d="M14.268,30.387l-0.655,0.591v4.358l1.747,4.949h8.246c3.882,0,7.028-3.146,7.028-7.028v-2.87L14.268,30.387
		L14.268,30.387z"/>
	<path fill="#B8DBF5" d="M14.268,33.14v-2.753H2.357v2.87c0,3.882,3.147,7.028,7.028,7.028h7.592
		C15.293,38.383,14.268,35.882,14.268,33.14z"/>
	<path fill="#BC845B" d="M158.518,121.17l-2.19-41.172c-0.074-1.397-1.229-2.491-2.627-2.491h-8.675
		c-1.399,0-2.553,1.095-2.627,2.491l-2.19,41.172c-0.279,5.247,3.9,9.654,9.155,9.654
		C154.618,130.825,158.798,126.417,158.518,121.17L158.518,121.17z"/>
	<path fill="#99806B" d="M15.06,121.17l2.19-47.101c0.074-1.397,1.228-2.491,2.627-2.491h-7.719c-1.399,0-2.553,1.095-2.627,2.491
		l-2.19,47.101c-0.279,5.247,3.9,9.654,9.155,9.654c1.382,0,2.688-0.307,3.86-0.852C17.072,128.446,14.854,125.038,15.06,121.17
		L15.06,121.17z"/>
	<path fill="#99806B" d="M147.928,121.17l2.19-41.172c0.074-1.397,1.228-2.491,2.627-2.491h-7.719c-1.399,0-2.553,1.095-2.627,2.491
		l-2.19,41.172c-0.279,5.247,3.9,9.654,9.155,9.654c1.382,0,2.688-0.307,3.86-0.852C149.94,128.446,147.723,125.038,147.928,121.17
		L147.928,121.17z"/>
	<path fill="#DCEDFB" d="M156.689,2.25l-8.38,6.136l-5.604,12.727v38.18l4.478,2.422l2.181,3.771l1.92,0.947h3.721
		c1.6,0,2.898-1.297,2.898-2.898V3.525c0-0.455-0.084-0.883-0.236-1.275L156.689,2.25z"/>
	<path fill="#B8DBF5" d="M149.664,64.476c-0.79-2.387-2.456-4.374-4.617-5.581c-0.92-0.513-1.494-1.479-1.494-2.532V26.458
		c0-10.144,5.504-19.334,14.115-24.208c-0.658-1.701-2.59-2.702-4.452-2.049c-11.153,3.91-18.619,14.438-18.619,26.257v29.905
		c0,1.053,0.574,2.019,1.494,2.532c2.162,1.207,3.827,3.194,4.617,5.581c0.389,1.175,1.501,1.957,2.739,1.957h8.956
		C151.165,66.433,150.052,65.651,149.664,64.476L149.664,64.476z"/>
	<path fill="#B8DBF5" d="M87.35,38.016h-6.942L66.424,48.477l-9.348,17.257v17.021l10.039,15.858l13.958,6.767l6.277-0.132
		c15.886-2.948,27.916-16.876,27.916-33.616C115.266,54.892,103.236,40.964,87.35,38.016L87.35,38.016z"/>
	<path fill="#93C7ED" d="M59.435,71.632c0-16.74,12.03-30.668,27.916-33.616c-2.035-0.378-4.133-0.577-6.277-0.577
		c-18.884,0-34.193,15.309-34.193,34.193s15.309,34.193,34.193,34.193c2.145,0,4.242-0.199,6.277-0.577
		C71.464,102.3,59.435,88.372,59.435,71.632L59.435,71.632z"/>
	<path fill="#DCEDFB" d="M30.634,1.098c-1.302,0-2.357,1.055-2.357,2.357v29.803c0,2.576-2.096,4.671-4.671,4.671h-8.217
		l-0.342,0.755l2.75,3.457l1.121,0.503h4.688c5.175,0,9.385-4.21,9.385-9.385V3.455C32.991,2.153,31.936,1.098,30.634,1.098
		L30.634,1.098z"/>
	<g>
		<path fill="#B8DBF5" d="M15.389,37.929H9.385c-2.576,0-4.671-2.096-4.671-4.671V3.455c0-1.302-1.055-2.357-2.357-2.357
			S0,2.153,0,3.455v29.803c0,5.175,4.21,9.385,9.385,9.385h10.561C17.981,41.584,16.384,39.933,15.389,37.929z"/>
	</g>
</g>
<g>
</g>
<g>
</g>
<g>
</g>
<g>
</g>
<g>
</g>
<g>
</g>
</svg>
