<?xml version="1.0" encoding="utf-8"?>
<!-- Generator: Adobe Illustrator 24.0.1, SVG Export Plug-In . SVG Version: 6.00 Build 0)  -->
<!DOCTYPE svg PUBLIC "-//W3C//DTD SVG 1.1//EN" "http://www.w3.org/Graphics/SVG/1.1/DTD/svg11.dtd" [
	<!ENTITY ns_extend "http://ns.adobe.com/Extensibility/1.0/">
	<!ENTITY ns_ai "http://ns.adobe.com/AdobeIllustrator/10.0/">
	<!ENTITY ns_graphs "http://ns.adobe.com/Graphs/1.0/">
	<!ENTITY ns_vars "http://ns.adobe.com/Variables/1.0/">
	<!ENTITY ns_imrep "http://ns.adobe.com/ImageReplacement/1.0/">
	<!ENTITY ns_sfw "http://ns.adobe.com/SaveForWeb/1.0/">
	<!ENTITY ns_custom "http://ns.adobe.com/GenericCustomNamespace/1.0/">
	<!ENTITY ns_adobe_xpath "http://ns.adobe.com/XPath/1.0/">
]>
<svg version="1.1" id="Calque_1" xmlns:x="&ns_extend;" xmlns:i="&ns_ai;" xmlns:graph="&ns_graphs;"
	 xmlns="http://www.w3.org/2000/svg" xmlns:xlink="http://www.w3.org/1999/xlink" x="0px" y="0px" viewBox="0 0 249.74 49.421"
	 enable-background="new 0 0 249.74 49.421" xml:space="preserve">
<metadata>
	<sfw  xmlns="&ns_sfw;">
		<slices></slices>
		<sliceSourceBounds  bottomLeftOrigin="true" height="49.421" width="249.74" x="483.825" y="-474.577"></sliceSourceBounds>
	</sfw>
</metadata>
<g>
	<g>
		<g>
			<path fill="#FFFFFF" d="M249.609,16.101l-0.045,0.394l-0.037,0.211l-0.036,0.138l-0.02,0.068
				c-0.005,0.018-0.013,0.045-0.034,0.097c-0.037,0.089-0.08,0.178-0.129,0.261c-0.024,0.04-0.054,0.086-0.076,0.117l-0.018,0.025
				l-0.037,0.049c0.021-0.022-0.208,0.237-0.117,0.132l-0.012,0.011l-0.024,0.022l-0.754,0.697
				c-0.254,0.238-0.498,0.453-0.742,0.668l-0.717,0.639l-2.874,2.661l-2.881,2.653c-0.96,0.886-1.939,1.745-2.91,2.616l-2.918,2.604
				l-1.459,1.302l-0.365,0.325c-0.143,0.131-0.264,0.219-0.398,0.329l-0.786,0.63c-0.517,0.431-1.057,0.822-1.598,1.21l-0.808,0.587
				l-0.825,0.559c-1.112,0.76-2.176,1.442-3.315,2.151c-0.57,0.34-1.125,0.705-1.708,1.022c-0.584,0.317-1.158,0.649-1.747,0.953
				l-1.778,0.893l-1.807,0.831l-1.836,0.763c-0.618,0.24-1.244,0.458-1.865,0.686c-0.627,0.217-1.268,0.41-1.901,0.615
				c-0.634,0.202-1.259,0.355-1.889,0.535c-1.288,0.347-2.555,0.642-3.834,0.948l-0.956,0.228l-0.96,0.19l-1.92,0.376
				c-1.267,0.257-2.608,0.471-3.914,0.517c-0.656,0.047-1.312,0.043-1.967,0.045c-0.654,0.006-1.306-0.017-1.959-0.031
				c1.299-0.138,2.601-0.244,3.881-0.455c0.644-0.08,1.274-0.223,1.901-0.358l0.236-0.05l0.108-0.024l0.117-0.034l0.471-0.135
				l0.941-0.27l1.886-0.527l0.942-0.265l0.926-0.301c1.228-0.409,2.481-0.786,3.69-1.191c0.612-0.217,1.244-0.414,1.839-0.647
				c0.595-0.236,1.191-0.456,1.781-0.702l1.767-0.765l1.742-0.817l1.709-0.882l1.677-0.939c1.104-0.651,2.19-1.329,3.26-2.033
				c1.055-0.698,2.168-1.454,3.188-2.194l0.779-0.559l0.758-0.584c0.508-0.387,1.014-0.774,1.488-1.192l0.724-0.613
				c0.115-0.1,0.254-0.209,0.351-0.3l0.361-0.329l1.447-1.315l2.895-2.631c0.963-0.879,1.935-1.749,2.884-2.64l2.871-2.648
				l2.309-2.118l-0.445,0.211c-0.794,0.375-1.603,0.778-2.502,1.098c-0.216,0.088-0.457,0.149-0.684,0.224
				c-0.226,0.078-0.467,0.134-0.711,0.184l-0.362,0.079l-0.091,0.019l-0.102,0.016l-0.162,0.023l-0.649,0.092
				c-1.728,0.253-3.461,0.476-5.192,0.708c-1.731,0.235-3.482,0.402-5.221,0.605l-5.227,0.537c-1.74,0.169-3.482,0.321-5.224,0.467
				c-1.741,0.151-3.483,0.301-5.228,0.42c-1.743,0.131-3.488,0.247-5.235,0.349c1.72-0.32,3.442-0.626,5.165-0.918l5.169-0.873
				l10.329-1.696c1.72-0.281,3.438-0.522,5.157-0.835c1.719-0.307,3.437-0.624,5.159-0.91l0.645-0.11l0.162-0.027
				c0.017-0.003,0.075-0.012,0.059-0.01l0.069-0.018l0.275-0.07c0.183-0.043,0.367-0.088,0.552-0.16
				c0.185-0.068,0.369-0.116,0.555-0.199c0.741-0.285,1.49-0.68,2.264-1.072l1.204-0.611l1.214-0.576
				c0.404-0.199,0.805-0.38,1.207-0.546l0.301-0.129l0.076-0.032l0.077-0.029l0.04-0.012l0.081-0.021
				c0.055-0.013,0.11-0.024,0.165-0.033c0.123-0.021,0.183-0.015,0.276-0.016l0.128,0.005l0.094,0.012
				c0.27,0.039,0.402,0.092,0.526,0.127c0.117,0.039,0.177,0.053,0.192,0.058l1.068,0.296L249.609,16.101z"/>
			<g>
				<g>
					<path fill="#FFFFFF" d="M52.924,46.36c-0.026-0.032-0.055-0.059-0.084-0.067l-0.056-0.015l-0.073-0.013l-0.129-0.018
						c-0.334-0.04-0.661-0.068-0.991-0.097l-1.973-0.157c-0.656-0.048-1.318-0.077-1.966-0.145l-0.974-0.09
						c-0.324-0.037-0.647-0.093-0.97-0.138c-1.293-0.179-2.572-0.478-3.844-0.799c-1.266-0.361-2.523-0.765-3.756-1.273
						l-0.924-0.378L36.27,42.75c-0.613-0.262-1.21-0.584-1.814-0.882c-0.599-0.311-1.191-0.647-1.783-0.979
						c-0.583-0.36-1.177-0.688-1.75-1.073c-1.16-0.734-2.291-1.54-3.413-2.365c-0.566-0.404-1.106-0.846-1.661-1.267l-1.646-1.338
						l-3.297-2.748c-2.193-1.842-4.411-3.634-6.615-5.453l-3.312-2.719l-1.656-1.359c-0.552-0.46-1.113-0.89-1.629-1.359
						c-0.528-0.46-1.057-0.916-1.572-1.42c-0.518-0.488-1.037-0.983-1.551-1.501l-0.978-0.972c1.783,0.438,3.567,0.869,5.352,1.299
						l3.76,0.905l0.921,0.223l0.962,0.261l1.885,0.419l7.54,1.668l7.55,1.605l0.028,0.006l0.041,0.005l6.92,0.772l3.478,0.388
						l1.888,0.146l-1.851-0.534l-3.447-0.71l-3.465-0.666l-3.473-0.659l0.069,0.01l-7.482-2.057l-7.491-1.994l-1.873-0.496
						l-0.904-0.271l-0.954-0.258l-3.744-1.003c-2.496-0.668-4.991-1.344-7.492-1.982l-0.293-0.074l-0.275,0.149l-0.349,0.188
						L0,15.137l0.398,1.14c0.028,0.081,0.072,0.257,0.133,0.487c0.07,0.232,0.133,0.533,0.382,0.937
						c0.072,0.103,0.157,0.208,0.234,0.291l0.097,0.097l0.193,0.195l0.386,0.39l1.548,1.56c0.512,0.523,1.042,1.037,1.577,1.548
						c0.524,0.521,1.079,1.008,1.633,1.497c0.552,0.505,1.112,0.95,1.663,1.396l1.663,1.345l3.326,2.69
						c2.221,1.788,4.428,3.601,6.66,5.365l3.341,2.661l1.697,1.318c0.581,0.421,1.155,0.867,1.741,1.266
						c0.583,0.409,1.168,0.814,1.768,1.186c0.592,0.389,1.196,0.749,1.801,1.105c0.6,0.37,1.222,0.682,1.831,1.025
						c0.619,0.316,1.238,0.635,1.864,0.928c0.63,0.28,1.253,0.584,1.894,0.828l0.956,0.378l0.967,0.331
						c1.288,0.446,2.598,0.783,3.91,1.074c1.318,0.259,2.641,0.474,3.971,0.548c0.332,0.021,0.664,0.052,0.996,0.063l0.997,0.015
						c0.666,0.019,1.32-0.004,1.978-0.006l1.972-0.026c0.328-0.003,0.658-0.004,0.98,0.004h0c0.114,0.084,0.105,0.043,0.109,0.056
						l0.021,0.015l0.038,0.016h0.065l0.497-0.024c1.317-0.044,2.632-0.12,3.947-0.18l-3.942-0.266L52.924,46.36z"/>
				</g>
			</g>
		</g>
		<polygon fill="#FFFFFF" points="217.774,0 218.986,3.732 222.91,3.732 219.736,6.038 220.948,9.77 217.774,7.464 214.599,9.77 
			215.812,6.038 212.637,3.732 216.561,3.732 		"/>
	</g>
	<g>
		<g>
			<path fill="#FFFFFF" d="M69.138,8.021c0,0-5.206,13.608-7.854,13.608c-2.649,0-2.009-11.782-2.009-11.782
				c-0.914,0.092-4.658-0.913-4.658-0.913l0.548-2.192l-6.941,2.649c-4.749,14.978-4.932,23.928-4.932,23.928
				s2.375,7.489,2.923,3.927c0.548-3.562,5.936-18.449,5.936-18.449s-1.187,16.713,4.566,16.805
				c5.754,0.091,13.151-19.179,13.151-19.179c-0.091,9.955-4.292,20.092-4.292,20.092c9.772-1.187,9.864-8.585,9.864-8.585
				c2.283-12.604,1.37-22.193,1.37-22.193L69.138,8.021z"/>
			<path fill="#FFFFFF" d="M87.495,6.834C85.303,7.93,85.303,7.93,85.303,7.93s-2.313,6.089-3.653,11.081
				c0,0-0.974,2.801,0.731,3.897c1.705,1.096-1.827,9.863-1.827,9.863s-0.609,3.41,3.897,4.384c0,0,7.55-24.111,7.671-30.564
				C92.122,6.591,89.687,5.738,87.495,6.834z"/>
			<path fill="#FFFFFF" d="M117.359,8.021c0,0-5.205,13.608-7.854,13.608c-2.648,0-2.009-11.782-2.009-11.782
				c-0.913,0.092-4.657-0.913-4.657-0.913l0.548-2.192l-6.941,2.649c-4.749,14.978-4.931,23.928-4.931,23.928
				s2.375,7.489,2.922,3.927c0.548-3.562,5.937-18.449,5.937-18.449s-1.187,16.713,4.566,16.805
				c5.754,0.091,13.152-19.179,13.152-19.179c-0.092,9.955-4.293,20.092-4.293,20.092c9.772-1.187,9.863-8.585,9.863-8.585
				c2.283-12.604,1.37-22.193,1.37-22.193L117.359,8.021z"/>
			<path fill="#FFFFFF" d="M150.025,20.107c-0.792-9.925-2.557-14.613-2.557-14.613s-1.461-0.609-3.166-0.609
				s-3.287,1.401-3.287,1.401s0,0.548-0.122,1.948c-0.122,1.4-1.035,1.339-1.035,1.339s0,0-1.948,0.304s-3.105,1.522-3.896,2.74
				c-0.792,1.218-4.02,10.655-4.02,10.655l-1.582,0.487l0.852,2.07c-0.852,1.339-1.218,9.742-1.218,9.742
				c0.852,0.549,4.384-3.47,4.384-3.47l2.435-6.637l3.437,0.338l4.844,2.158l-0.548,7.367l2.923-0.67c0,0,0.122-0.487,0.183-1.156
				c0.061-0.67,0.551-1.097,0.551-1.097l2.737-1.278c-0.061-0.731,0.366-1.948,0.548-2.558c0.183-0.609,1.766-3.957,1.766-3.957
				c0.183-0.67-0.426-4.14-0.426-4.14L150.025,20.107z M142.78,19.986c0,0-5.662,0.609-5.906,0.792c0,0,2.983-7.307,3.714-7.611
				C141.318,12.862,142.84,18.889,142.78,19.986z"/>
			<path fill="#FFFFFF" d="M173.648,5.19c-5.845-0.974-14.003,1.278-14.003,1.278l-3.166,8.402l3.227-0.304l-3.166,13.517
				l-2.314,0.061l2.739,7.977c13.761-2.009,19.18-10.533,19.18-10.533C185.582,11.096,179.494,6.164,173.648,5.19z M161.288,28.083
				c0,0,0.122-1.583,0.608-2.922c0.487-1.339,4.749-13.334,4.749-13.334s6.829-1.85,8.524,2.922
				C176.815,19.376,169.569,27.169,161.288,28.083z"/>
			<path fill="#FFFFFF" d="M206.1,6.895c-3.226-3.653-11.142-2.314-11.142-2.314l1.096-2.131l-3.775,0.548l-1.827,2.435l-4.08,0.731
				l-2.496,7.124l2.435,0.061c-4.931,9.255-10.961,21.06,0.67,22.284c9.255,0.974,15.221-10.472,16.257-12.359
				C204.275,21.386,209.327,10.548,206.1,6.895z M188.931,27.413c-4.201-2.253,1.948-14.674,1.948-14.674
				c9.072-1.766,9.803,0.67,9.803,0.67C202.691,18.037,193.132,29.667,188.931,27.413z"/>
		</g>
		<g>
			<path fill="#FFFFFF" d="M69.992,49.332v-5.147h0.856v4.269h2.138v0.878H69.992z"/>
			<path fill="#FFFFFF" d="M75.85,49.332v-5.19h3.158v0.878h-2.301v1.15h2.138v0.874h-2.138v1.409h2.379v0.878H75.85z"/>
			<path fill="#FFFFFF" d="M81.842,47.64l0.839-0.099c0.094,0.663,0.403,0.995,0.927,0.995c0.259,0,0.464-0.068,0.612-0.203
				c0.149-0.136,0.223-0.304,0.223-0.504c0-0.118-0.026-0.218-0.078-0.301c-0.052-0.083-0.131-0.15-0.237-0.203
				c-0.106-0.053-0.364-0.142-0.772-0.267c-0.366-0.111-0.634-0.23-0.804-0.36s-0.305-0.3-0.405-0.511
				c-0.1-0.211-0.15-0.438-0.15-0.681c0-0.283,0.064-0.538,0.193-0.764c0.129-0.226,0.306-0.397,0.533-0.513
				c0.227-0.116,0.506-0.173,0.839-0.173c0.5,0,0.891,0.136,1.172,0.407s0.429,0.659,0.446,1.164l-0.86,0.046
				c-0.038-0.278-0.119-0.473-0.244-0.584s-0.303-0.166-0.534-0.166c-0.231,0-0.409,0.048-0.534,0.145
				c-0.125,0.096-0.188,0.217-0.188,0.36c0,0.141,0.057,0.26,0.17,0.356c0.114,0.097,0.374,0.202,0.783,0.318
				c0.432,0.126,0.744,0.257,0.936,0.395c0.192,0.138,0.339,0.316,0.44,0.534c0.102,0.218,0.152,0.483,0.152,0.795
				c0,0.45-0.139,0.83-0.416,1.136c-0.278,0.306-0.711,0.46-1.301,0.46C82.541,49.421,81.96,48.827,81.842,47.64z"/>
			<path fill="#FFFFFF" d="M92.171,49.332v-5.19h1.38c0.515,0,0.851,0.025,1.009,0.075c0.253,0.08,0.461,0.251,0.625,0.513
				c0.164,0.262,0.246,0.6,0.246,1.012c0,0.375-0.071,0.69-0.212,0.943c-0.141,0.254-0.319,0.432-0.531,0.534
				c-0.212,0.102-0.578,0.154-1.097,0.154h-0.563v1.958H92.171z M93.028,45.021v1.476h0.475c0.319,0,0.536-0.022,0.651-0.067
				c0.115-0.045,0.209-0.126,0.282-0.243s0.11-0.261,0.11-0.431c0-0.173-0.038-0.318-0.114-0.437
				c-0.076-0.118-0.169-0.198-0.28-0.238c-0.111-0.04-0.346-0.06-0.706-0.06L93.028,45.021L93.028,45.021z"/>
			<path fill="#FFFFFF" d="M98.358,49.332v-5.19h0.857v5.19H98.358z"/>
			<path fill="#FFFFFF" d="M102.287,49.332v-5.19h3.158v0.878h-2.301v1.15h2.138v0.874h-2.138v1.409h2.379v0.878H102.287z"/>
			<path fill="#FFFFFF" d="M108.492,44.143h1.567c0.396,0,0.695,0.044,0.896,0.133c0.202,0.089,0.387,0.238,0.557,0.448
				c0.17,0.21,0.303,0.483,0.4,0.818s0.145,0.752,0.145,1.25c0,0.448-0.051,0.838-0.152,1.17c-0.101,0.332-0.23,0.594-0.385,0.788
				c-0.156,0.194-0.343,0.34-0.564,0.437c-0.22,0.098-0.504,0.147-0.851,0.147h-1.613L108.492,44.143L108.492,44.143z
				 M109.348,45.021v3.434h0.644c0.276,0,0.476-0.026,0.6-0.078c0.124-0.052,0.225-0.131,0.304-0.236
				c0.079-0.105,0.144-0.27,0.196-0.497c0.052-0.226,0.078-0.524,0.078-0.895c0-0.385-0.026-0.687-0.079-0.909
				s-0.136-0.396-0.248-0.524c-0.112-0.127-0.249-0.211-0.409-0.251c-0.12-0.031-0.353-0.046-0.697-0.046L109.348,45.021
				L109.348,45.021z"/>
			<path fill="#FFFFFF" d="M114.817,47.64l0.839-0.099c0.094,0.663,0.403,0.995,0.927,0.995c0.259,0,0.464-0.068,0.612-0.203
				c0.149-0.136,0.223-0.304,0.223-0.504c0-0.118-0.026-0.218-0.078-0.301c-0.052-0.083-0.131-0.15-0.237-0.203
				c-0.106-0.053-0.364-0.142-0.772-0.267c-0.366-0.111-0.634-0.23-0.804-0.36s-0.305-0.3-0.405-0.511
				c-0.1-0.211-0.15-0.438-0.15-0.681c0-0.283,0.064-0.538,0.193-0.764c0.129-0.226,0.306-0.397,0.533-0.513
				s0.506-0.173,0.839-0.173c0.5,0,0.891,0.136,1.172,0.407c0.281,0.272,0.43,0.659,0.446,1.164l-0.86,0.046
				c-0.038-0.278-0.119-0.473-0.244-0.584s-0.303-0.166-0.534-0.166c-0.231,0-0.409,0.048-0.534,0.145
				c-0.125,0.096-0.188,0.217-0.188,0.36c0,0.141,0.057,0.26,0.17,0.356c0.114,0.097,0.374,0.202,0.783,0.318
				c0.432,0.126,0.744,0.257,0.936,0.395c0.192,0.138,0.339,0.316,0.44,0.534c0.102,0.218,0.152,0.483,0.152,0.795
				c0,0.45-0.139,0.83-0.416,1.136c-0.278,0.306-0.711,0.46-1.301,0.46C115.516,49.421,114.935,48.827,114.817,47.64z"/>
			<path fill="#FFFFFF" d="M125.142,44.143h1.566c0.396,0,0.695,0.044,0.896,0.133c0.202,0.089,0.388,0.238,0.557,0.448
				c0.17,0.21,0.303,0.483,0.4,0.818s0.145,0.752,0.145,1.25c0,0.448-0.051,0.838-0.152,1.17c-0.101,0.332-0.23,0.594-0.385,0.788
				c-0.155,0.194-0.343,0.34-0.564,0.437c-0.22,0.098-0.504,0.147-0.851,0.147h-1.613V44.143z M125.999,45.021v3.434h0.644
				c0.276,0,0.477-0.026,0.6-0.078c0.124-0.052,0.225-0.131,0.304-0.236c0.079-0.105,0.144-0.27,0.196-0.497
				c0.052-0.226,0.078-0.524,0.078-0.895c0-0.385-0.026-0.687-0.079-0.909s-0.136-0.396-0.248-0.524
				c-0.112-0.127-0.249-0.211-0.409-0.251c-0.12-0.031-0.353-0.046-0.697-0.046L125.999,45.021L125.999,45.021z"/>
			<path fill="#FFFFFF" d="M135.525,49.332h-0.932l-0.373-1.175h-1.704l-0.352,1.175h-0.914l1.657-5.19h0.91L135.525,49.332z
				 M133.944,47.279l-0.587-1.925l-0.576,1.925H133.944z"/>
			<path fill="#FFFFFF" d="M138.232,49.332v-5.19h0.835l1.741,3.466v-3.466h0.8v5.19h-0.864l-1.713-3.384v3.384H138.232z"/>
			<path fill="#FFFFFF" d="M144.544,47.64l0.839-0.099c0.094,0.663,0.403,0.995,0.927,0.995c0.259,0,0.464-0.068,0.612-0.203
				c0.149-0.136,0.223-0.304,0.223-0.504c0-0.118-0.026-0.218-0.078-0.301c-0.052-0.083-0.131-0.15-0.237-0.203
				c-0.106-0.053-0.363-0.142-0.772-0.267c-0.366-0.111-0.634-0.23-0.804-0.36c-0.17-0.13-0.305-0.3-0.405-0.511
				c-0.1-0.211-0.15-0.438-0.15-0.681c0-0.283,0.064-0.538,0.193-0.764c0.129-0.226,0.306-0.397,0.533-0.513
				s0.506-0.173,0.839-0.173c0.5,0,0.89,0.136,1.171,0.407s0.429,0.659,0.446,1.164l-0.86,0.046
				c-0.038-0.278-0.119-0.473-0.244-0.584c-0.125-0.111-0.303-0.166-0.534-0.166c-0.231,0-0.41,0.048-0.534,0.145
				c-0.126,0.096-0.188,0.217-0.188,0.36c0,0.141,0.057,0.26,0.17,0.356c0.113,0.097,0.374,0.202,0.782,0.318
				c0.432,0.126,0.744,0.257,0.936,0.395c0.192,0.138,0.339,0.316,0.441,0.534c0.101,0.218,0.152,0.483,0.152,0.795
				c0,0.45-0.139,0.83-0.416,1.136c-0.277,0.306-0.711,0.46-1.301,0.46C145.242,49.421,144.662,48.827,144.544,47.64z"/>
			<path fill="#FFFFFF" d="M154.897,49.332v-5.147h0.856v4.269h2.139v0.878H154.897z"/>
			<path fill="#FFFFFF" d="M160.394,44.143h0.814v0.714c0,0.401-0.047,0.699-0.141,0.898c-0.115,0.24-0.309,0.42-0.581,0.54
				l-0.16-0.414c0.161-0.065,0.276-0.156,0.347-0.27c0.071-0.114,0.109-0.271,0.114-0.474h-0.393L160.394,44.143L160.394,44.143z"/>
			<path fill="#FFFFFF" d="M164.33,49.332v-5.19h3.158v0.878h-2.301v1.15h2.138v0.874h-2.138v1.409h2.379v0.878H164.33z"/>
			<path fill="#FFFFFF" d="M174.379,49.332h-0.932l-0.373-1.175h-1.704l-0.352,1.175h-0.914l1.657-5.19h0.91L174.379,49.332z
				 M172.798,47.279l-0.587-1.925l-0.576,1.925H172.798z"/>
			<path fill="#FFFFFF" d="M177.069,44.143h0.857v2.811c0,0.437,0.01,0.721,0.032,0.853c0.038,0.229,0.128,0.406,0.271,0.531
				c0.143,0.125,0.331,0.187,0.566,0.187c0.199,0,0.361-0.044,0.486-0.132c0.125-0.089,0.211-0.211,0.257-0.368
				c0.046-0.157,0.069-0.494,0.069-1.011v-2.871h0.856v2.726c0,0.696-0.037,1.199-0.112,1.51c-0.074,0.31-0.242,0.562-0.503,0.754
				c-0.261,0.192-0.604,0.289-1.032,0.289c-0.444,0-0.79-0.079-1.039-0.239c-0.249-0.159-0.43-0.383-0.542-0.673
				c-0.112-0.289-0.168-0.822-0.168-1.599L177.069,44.143L177.069,44.143z"/>
		</g>
	</g>
</g>
<g>
</g>
<g>
</g>
<g>
</g>
<g>
</g>
<g>
</g>
<g>
</g>
</svg>
